<svg xmlns="http://www.w3.org/2000/svg" viewBox="0 0 1280 720">
<!-- Extracted from source PPT, text placeholders: {CONTENT} -->
  <rect x="33.93" y="32.33" width="1094.23" height="73.07" fill="none" stroke="none" stroke-width="0"/>
  <text x="33.93" y="57.9045" fill="#1A1A1A" font-size="11" font-family="Microsoft YaHei">{CONTENT}

  <rect x="1128.16" y="28.6" width="112.87" height="31.33" fill="#E8E8E8" stroke="#CCCCCC" stroke-width="1"/>
  <text x="1184.595" y="44.265" fill="#999999" font-size="10" font-family="Microsoft YaHei" text-anchor="middle" dominant-baseline="middle">{CONTENT}
  <rect x="21.93" y="152.87" width="808.15" height="285.87" fill="#1A1A1A" stroke="#1A1A1A" stroke-width="1"/>
  <!-- shape type FREEFORM (5) at -34.73,220.2 189.6x54.0 -->
  <rect x="39.47" y="158.93" width="45.27" height="178.13" fill="none" stroke="none"/>
  <text x="39.47" y="212.369" fill="#1A1A1A" font-size="11" font-family="Microsoft YaHei">{CONTENT}
  <rect x="21.93" y="448.87" width="808.15" height="243.53" fill="#1A1A1A" stroke="#1A1A1A" stroke-width="1"/>
  <rect x="853.75" y="152.93" width="402.21" height="539.4" fill="#1A1A1A" stroke="#1A1A1A" stroke-width="1"/>
  <!-- shape type FREEFORM (5) at -34.73,515.6 189.6x54.0 -->
  <rect x="39.47" y="464.87" width="45.27" height="150.53" fill="none" stroke="none"/>
  <text x="39.47" y="510.029" fill="#1A1A1A" font-size="11" font-family="Microsoft YaHei">{CONTENT}
  <!-- shape type FREEFORM (5) at 853.22,160.0 213.41x48.0 -->
  <rect x="866.22" y="169.6" width="145.47" height="31.47" fill="none" stroke="none"/>
  <text x="866.22" y="179.041" fill="#1A1A1A" font-size="11" font-family="Microsoft YaHei">{CONTENT}
  <rect x="1.36" y="0.29" width="0.02" height="0.8" fill="#76BD63" stroke="#000000" stroke-width="1"/>
  <rect x="1.36" y="0.33" width="0.02" height="0.02" fill="#66BF35" stroke="#1A1A1A" stroke-width="1"/>
  <rect x="1.36" y="0.6" width="0.02" height="0.02" fill="#66BF35" stroke="#1A1A1A" stroke-width="1"/>
  <rect x="1.36" y="0.88" width="0.02" height="0.02" fill="#66BF35" stroke="#1A1A1A" stroke-width="1"/>
  <rect x="1.4" y="0.31" width="0.41" height="0.05" fill="none" stroke="#1A1A1A" stroke-width="1"/>
  <text x="1.4" y="0.3275" fill="#1A1A1A" font-size="8" font-family="Microsoft YaHei">{CONTENT}

  <rect x="1.4" y="0.59" width="0.41" height="0.05" fill="none" stroke="#1A1A1A" stroke-width="1"/>
  <text x="1.4" y="0.6074999999999999" fill="#1A1A1A" font-size="8" font-family="Microsoft YaHei">{CONTENT}

  <rect x="1.4" y="0.86" width="0.41" height="0.05" fill="none" stroke="#1A1A1A" stroke-width="1"/>
  <text x="1.4" y="0.8775" fill="#1A1A1A" font-size="8" font-family="Microsoft YaHei">{CONTENT}

  <rect x="1.39" y="0.35" width="0.26" height="0.22" fill="none" stroke="#1A1A1A" stroke-width="1"/>
  <text x="1.39" y="0.427" fill="#1A1A1A" font-size="8" font-family="Microsoft YaHei">{CONTENT}

  <rect x="1.62" y="0.35" width="0.26" height="0.22" fill="none" stroke="none"/>
  <text x="1.62" y="0.416" fill="#1A1A1A" font-size="11" font-family="Microsoft YaHei">{CONTENT}
  <text x="1.62" y="12.416" fill="#1A1A1A" font-size="11" font-family="Microsoft YaHei">{CONTENT}
  <text x="1.62" y="24.416" fill="#1A1A1A" font-size="11" font-family="Microsoft YaHei">{CONTENT}
  <text x="1.62" y="36.416000000000004" fill="#1A1A1A" font-size="11" font-family="Microsoft YaHei">{CONTENT}
  <text x="1.62" y="48.416000000000004" fill="#1A1A1A" font-size="11" font-family="Microsoft YaHei">{CONTENT}
  <rect x="1.39" y="0.63" width="0.27" height="0.21" fill="none" stroke="none"/>
  <text x="1.39" y="0.6930000000000001" fill="#1A1A1A" font-size="11" font-family="Microsoft YaHei">{CONTENT}
  <text x="1.39" y="12.693000000000001" fill="#1A1A1A" font-size="11" font-family="Microsoft YaHei">{CONTENT}
  <text x="1.39" y="24.692999999999998" fill="#1A1A1A" font-size="11" font-family="Microsoft YaHei">{CONTENT}
  <text x="1.39" y="36.693000000000005" fill="#1A1A1A" font-size="11" font-family="Microsoft YaHei">{CONTENT}
  <text x="1.39" y="48.693000000000005" fill="#1A1A1A" font-size="11" font-family="Microsoft YaHei">{CONTENT}
  <rect x="1.62" y="0.63" width="0.25" height="0.17" fill="none" stroke="none"/>
  <text x="1.62" y="0.681" fill="#1A1A1A" font-size="11" font-family="Microsoft YaHei">{CONTENT}
  <text x="1.62" y="12.681000000000001" fill="#1A1A1A" font-size="11" font-family="Microsoft YaHei">{CONTENT}
  <text x="1.62" y="24.680999999999997" fill="#1A1A1A" font-size="11" font-family="Microsoft YaHei">{CONTENT}
  <text x="1.62" y="36.681000000000004" fill="#1A1A1A" font-size="11" font-family="Microsoft YaHei">{CONTENT}
  <rect x="1.39" y="0.9" width="0.57" height="0.21" fill="none" stroke="none"/>
  <text x="1.39" y="0.9630000000000001" fill="#1A1A1A" font-size="11" font-family="Microsoft YaHei">{CONTENT}
  <text x="1.39" y="12.963000000000001" fill="#1A1A1A" font-size="11" font-family="Microsoft YaHei">{CONTENT}
  <text x="1.39" y="24.962999999999997" fill="#1A1A1A" font-size="11" font-family="Microsoft YaHei">{CONTENT}
  <text x="1.39" y="36.963" fill="#1A1A1A" font-size="11" font-family="Microsoft YaHei">{CONTENT}
  <rect x="99.54" y="152.53" width="716.28" height="60.2" fill="none" stroke="none"/>
  <text x="99.54" y="170.59" fill="#1A1A1A" font-size="11" font-family="Microsoft YaHei">{CONTENT}
  <rect x="304.28" y="63.46" width="668.76" height="655.73" fill="#1A1A1A" stroke="#1A1A1A" stroke-width="1"/>
  <!-- shape type FREEFORM (5) at 252.17,203.67 232.51x220.83 -->
  <!-- shape type FREEFORM (5) at 253.34,425.33 229.67x215.75 -->
  <!-- shape type FREEFORM (5) at 483.01,203.67 239.17x221.0 -->
  <!-- shape type FREEFORM (5) at 483.85,424.5 238.17x216.58 -->
  <!-- shape type FREEFORM (5) at 490.91,251.79 174.44x165.29 -->
  <!-- shape type FREEFORM (5) at 308.15,430.42 173.49x157.33 -->
  <!-- shape type FREEFORM (5) at 490.91,430.58 174.44x157.17 -->
  <!-- shape type FREEFORM (5) at 307.69,251.79 173.67x165.33 -->
  <rect x="439.02" y="265.39" width="211.91" height="119.86" fill="none" stroke="#1A1A1A" stroke-width="1.0"/>
  <text x="439.02" y="307.341" fill="#1A1A1A" font-size="18" font-family="Microsoft YaHei">{CONTENT}

  <rect x="439.02" y="395.94" width="213.26" height="119.86" fill="none" stroke="#1A1A1A" stroke-width="1.0"/>
  <text x="439.02" y="437.891" fill="#1A1A1A" font-size="18" font-family="Microsoft YaHei">{CONTENT}

  <rect x="628.05" y="396.13" width="217.72" height="119.86" fill="none" stroke="#1A1A1A" stroke-width="1.0"/>
  <text x="628.05" y="438.081" fill="#1A1A1A" font-size="18" font-family="Microsoft YaHei">{CONTENT}

  <rect x="621.01" y="267.4" width="211.97" height="119.86" fill="none" stroke="#1A1A1A" stroke-width="1.0"/>
  <text x="621.01" y="309.351" fill="#1A1A1A" font-size="18" font-family="Microsoft YaHei">{CONTENT}

  <rect x="475.51" y="591.15" width="321.47" height="73.67" fill="none" stroke="#1A1A1A" stroke-width="1.0"/>
  <text x="475.51" y="616.9345" fill="#1A1A1A" font-size="11" font-family="Microsoft YaHei">{CONTENT}

  <rect x="525.13" y="70.75" width="238.4" height="73.67" fill="none" stroke="#1A1A1A" stroke-width="1.0"/>
  <text x="525.13" y="96.5345" fill="#1A1A1A" font-size="11" font-family="Microsoft YaHei">{CONTENT}

  <rect x="522.72" y="109.07" width="245.91" height="73.67" fill="none" stroke="#1A1A1A" stroke-width="1.0"/>
  <text x="522.72" y="134.8545" fill="#1A1A1A" font-size="11" font-family="Microsoft YaHei">{CONTENT}

  <rect x="137.67" y="209.67" width="170.74" height="29.13" fill="none" stroke="none"/>
  <text x="137.67" y="218.409" fill="#1A1A1A" font-size="11" font-family="Microsoft YaHei">{CONTENT}
  <rect x="186.94" y="240.93" width="184.45" height="194.13" fill="none" stroke="#1A1A1A" stroke-width="2.67"/>
  <rect x="326.67" y="210.8" width="170.74" height="29.13" fill="none" stroke="none"/>
  <text x="326.67" y="219.53900000000002" fill="#1A1A1A" font-size="11" font-family="Microsoft YaHei">{CONTENT}
  <rect x="382.61" y="261.4" width="48.67" height="31.33" fill="#E8E8E8" stroke="#CCCCCC" stroke-width="1"/>
  <text x="406.945" y="277.065" fill="#999999" font-size="10" font-family="Microsoft YaHei" text-anchor="middle" dominant-baseline="middle">{CONTENT}
  <rect x="350.41" y="278.6" width="10.58" height="10.4" fill="#73A154" stroke="#1A1A1A" stroke-width="1"/>
  <rect x="364.94" y="331.93" width="10.58" height="10.4" fill="#73A154" stroke="#1A1A1A" stroke-width="1"/>
  <rect x="350.41" y="386.8" width="10.58" height="10.4" fill="#73A154" stroke="#1A1A1A" stroke-width="1"/>
  <rect x="385.81" y="320.33" width="48.67" height="33.6" fill="#E8E8E8" stroke="#CCCCCC" stroke-width="1"/>
  <text x="410.145" y="337.13" fill="#999999" font-size="10" font-family="Microsoft YaHei" text-anchor="middle" dominant-baseline="middle">{CONTENT}
  <rect x="383.81" y="384.33" width="49.73" height="34.33" fill="#E8E8E8" stroke="#CCCCCC" stroke-width="1"/>
  <text x="408.675" y="401.495" fill="#999999" font-size="10" font-family="Microsoft YaHei" text-anchor="middle" dominant-baseline="middle">{CONTENT}
  <rect x="435.54" y="262.47" width="80.4" height="26.07" fill="none" stroke="none"/>
  <text x="435.54" y="270.29100000000005" fill="#1A1A1A" font-size="11" font-family="Microsoft YaHei">{CONTENT}
  <rect x="435.54" y="323.6" width="80.4" height="26.07" fill="none" stroke="none"/>
  <text x="435.54" y="331.42100000000005" fill="#1A1A1A" font-size="11" font-family="Microsoft YaHei">{CONTENT}
  <rect x="435.54" y="387.33" width="80.4" height="26.07" fill="none" stroke="none"/>
  <text x="435.54" y="395.151" fill="#1A1A1A" font-size="11" font-family="Microsoft YaHei">{CONTENT}
  <rect x="515.95" y="264.73" width="65.4" height="22.73" fill="none" stroke="none" stroke-width="0"/>
  <text x="515.95" y="272.6855" fill="#1A1A1A" font-size="8" font-family="Microsoft YaHei">{CONTENT}

  <rect x="515.95" y="325.0" width="87.47" height="23.67" fill="none" stroke="none" stroke-width="0"/>
  <text x="515.95" y="333.2845" fill="#1A1A1A" font-size="8" font-family="Microsoft YaHei">{CONTENT}

  <rect x="589.61" y="264.73" width="65.4" height="22.73" fill="none" stroke="none" stroke-width="0"/>
  <text x="589.61" y="272.6855" fill="#1A1A1A" font-size="8" font-family="Microsoft YaHei">{CONTENT}

  <rect x="662.35" y="264.73" width="65.4" height="22.73" fill="none" stroke="none" stroke-width="0"/>
  <text x="662.35" y="272.6855" fill="#1A1A1A" font-size="8" font-family="Microsoft YaHei">{CONTENT}

  <rect x="735.42" y="264.73" width="65.4" height="22.73" fill="none" stroke="none" stroke-width="0"/>
  <text x="735.42" y="272.6855" fill="#1A1A1A" font-size="8" font-family="Microsoft YaHei">{CONTENT}

  <rect x="610.15" y="324.87" width="87.47" height="23.67" fill="none" stroke="none" stroke-width="0"/>
  <text x="610.15" y="333.1545" fill="#1A1A1A" font-size="8" font-family="Microsoft YaHei">{CONTENT}

  <rect x="515.95" y="389.67" width="87.47" height="23.67" fill="none" stroke="none" stroke-width="0"/>
  <text x="515.95" y="397.9545" fill="#1A1A1A" font-size="8" font-family="Microsoft YaHei">{CONTENT}

  <rect x="610.15" y="389.67" width="87.47" height="23.67" fill="none" stroke="none" stroke-width="0"/>
  <text x="610.15" y="397.9545" fill="#1A1A1A" font-size="8" font-family="Microsoft YaHei">{CONTENT}

  <rect x="98.67" y="438.4" width="716.28" height="86.0" fill="none" stroke="none"/>
  <text x="98.67" y="464.2" fill="#1A1A1A" font-size="11" font-family="Microsoft YaHei">{CONTENT}
  <rect x="0.19" y="0.84" width="0.38" height="0.24" fill="#1A1A1A" stroke="#1A1A1A" stroke-width="4.0"/>
  <rect x="0.31" y="0.84" width="0.16" height="0.04" fill="none" stroke="none"/>
  <text x="0.31" y="0.852" fill="#1A1A1A" font-size="11" font-family="Microsoft YaHei">{CONTENT}
  <rect x="0.24" y="0.88" width="0.3" height="0.05" fill="#73A154" stroke="#1A1A1A" stroke-width="1"/>
  <rect x="0.25" y="0.88" width="0.04" height="0.04" fill="#E8E8E8" stroke="#CCCCCC" stroke-width="1"/>
  <text x="0.27" y="0.9" fill="#999999" font-size="10" font-family="Microsoft YaHei" text-anchor="middle" dominant-baseline="middle">{CONTENT}
  <rect x="0.3" y="0.88" width="0.22" height="0.04" fill="none" stroke="none"/>
  <text x="0.3" y="0.892" fill="#1A1A1A" font-size="11" font-family="Microsoft YaHei">{CONTENT}
  <rect x="0.24" y="0.93" width="0.3" height="0.05" fill="#1A1A1A" stroke="#1A1A1A" stroke-width="1"/>
  <rect x="0.24" y="0.98" width="0.3" height="0.05" fill="#73A154" stroke="#1A1A1A" stroke-width="1"/>
  <rect x="0.24" y="1.02" width="0.3" height="0.05" fill="#73A154" stroke="#1A1A1A" stroke-width="1"/>
  <rect x="0.25" y="0.93" width="0.05" height="0.05" fill="#E8E8E8" stroke="#CCCCCC" stroke-width="1"/>
  <text x="0.275" y="0.9550000000000001" fill="#999999" font-size="10" font-family="Microsoft YaHei" text-anchor="middle" dominant-baseline="middle">{CONTENT}
  <rect x="0.31" y="0.93" width="0.2" height="0.04" fill="none" stroke="none"/>
  <text x="0.31" y="0.9420000000000001" fill="#1A1A1A" font-size="11" font-family="Microsoft YaHei">{CONTENT}
  <rect x="0.25" y="0.98" width="0.04" height="0.04" fill="#E8E8E8" stroke="#CCCCCC" stroke-width="1"/>
  <text x="0.27" y="1.0" fill="#999999" font-size="10" font-family="Microsoft YaHei" text-anchor="middle" dominant-baseline="middle">{CONTENT}
  <rect x="0.31" y="0.98" width="0.2" height="0.04" fill="none" stroke="none"/>
  <text x="0.31" y="0.992" fill="#1A1A1A" font-size="11" font-family="Microsoft YaHei">{CONTENT}
  <rect x="0.25" y="1.03" width="0.04" height="0.04" fill="#E8E8E8" stroke="#CCCCCC" stroke-width="1"/>
  <text x="0.27" y="1.05" fill="#999999" font-size="10" font-family="Microsoft YaHei" text-anchor="middle" dominant-baseline="middle">{CONTENT}
  <rect x="0.31" y="1.03" width="0.2" height="0.04" fill="none" stroke="none"/>
  <text x="0.31" y="1.042" fill="#1A1A1A" font-size="11" font-family="Microsoft YaHei">{CONTENT}
  <rect x="0.62" y="0.83" width="0.62" height="0.24" fill="#1A1A1A" stroke="#1A1A1A" stroke-width="4.0"/>
  <rect x="0.97" y="0.38" width="0.03" height="0.04" fill="none" stroke="#1A1A1A" stroke-width="1"/>
  <rect x="0.99" y="0.38" width="0.03" height="0.04" fill="none" stroke="#1A1A1A" stroke-width="1"/>
  <rect x="0.86" y="0.83" width="0.11" height="0.04" fill="none" stroke="none"/>
  <text x="0.86" y="0.842" fill="#1A1A1A" font-size="11" font-family="Microsoft YaHei">{CONTENT}
  <rect x="0.63" y="0.87" width="0.28" height="0.05" fill="#2E75B6" stroke="#1A1A1A" stroke-width="1"/>
  <rect x="0.65" y="0.88" width="0.04" height="0.03" fill="#E8E8E8" stroke="#CCCCCC" stroke-width="1"/>
  <text x="0.67" y="0.895" fill="#999999" font-size="10" font-family="Microsoft YaHei" text-anchor="middle" dominant-baseline="middle">{CONTENT}
  <rect x="0.67" y="0.87" width="0.26" height="0.05" fill="none" stroke="none"/>
  <text x="0.67" y="0.885" fill="#1A1A1A" font-size="11" font-family="Microsoft YaHei">{CONTENT}
  <text x="0.67" y="12.885" fill="#1A1A1A" font-size="11" font-family="Microsoft YaHei">{CONTENT}
  <rect x="0.92" y="0.84" width="0.28" height="0.05" fill="#2E75B6" stroke="#1A1A1A" stroke-width="1"/>
  <rect x="0.93" y="0.85" width="0.04" height="0.04" fill="#E8E8E8" stroke="#CCCCCC" stroke-width="1"/>
  <text x="0.9500000000000001" y="0.87" fill="#999999" font-size="10" font-family="Microsoft YaHei" text-anchor="middle" dominant-baseline="middle">{CONTENT}
  <rect x="1.0" y="0.84" width="0.16" height="0.06" fill="none" stroke="none"/>
  <text x="1.0" y="0.858" fill="#1A1A1A" font-size="11" font-family="Microsoft YaHei">{CONTENT}
  <text x="1.0" y="12.858" fill="#1A1A1A" font-size="11" font-family="Microsoft YaHei">{CONTENT}
  <rect x="0.63" y="0.92" width="0.28" height="0.05" fill="#2E75B6" stroke="#1A1A1A" stroke-width="1"/>
  <rect x="0.94" y="0.92" width="0.28" height="0.05" fill="#2E75B6" stroke="#1A1A1A" stroke-width="1"/>
  <rect x="0.64" y="0.93" width="0.04" height="0.04" fill="#E8E8E8" stroke="#CCCCCC" stroke-width="1"/>
  <text x="0.66" y="0.9500000000000001" fill="#999999" font-size="10" font-family="Microsoft YaHei" text-anchor="middle" dominant-baseline="middle">{CONTENT}
  <rect x="0.72" y="0.91" width="0.16" height="0.05" fill="none" stroke="none"/>
  <text x="0.72" y="0.925" fill="#1A1A1A" font-size="11" font-family="Microsoft YaHei">{CONTENT}
  <text x="0.72" y="12.925" fill="#1A1A1A" font-size="11" font-family="Microsoft YaHei">{CONTENT}
  <rect x="0.95" y="0.93" width="0.05" height="0.03" fill="#E8E8E8" stroke="#CCCCCC" stroke-width="1"/>
  <text x="0.975" y="0.9450000000000001" fill="#999999" font-size="10" font-family="Microsoft YaHei" text-anchor="middle" dominant-baseline="middle">{CONTENT}
  <rect x="1.02" y="0.91" width="0.16" height="0.05" fill="none" stroke="none"/>
  <text x="1.02" y="0.925" fill="#1A1A1A" font-size="11" font-family="Microsoft YaHei">{CONTENT}
  <text x="1.02" y="12.925" fill="#1A1A1A" font-size="11" font-family="Microsoft YaHei">{CONTENT}
  <rect x="0.63" y="0.97" width="0.28" height="0.05" fill="#2E75B6" stroke="#1A1A1A" stroke-width="1"/>
  <rect x="0.94" y="0.97" width="0.28" height="0.05" fill="#2E75B6" stroke="#1A1A1A" stroke-width="1"/>
  <rect x="0.64" y="0.98" width="0.04" height="0.04" fill="#E8E8E8" stroke="#CCCCCC" stroke-width="1"/>
  <text x="0.66" y="1.0" fill="#999999" font-size="10" font-family="Microsoft YaHei" text-anchor="middle" dominant-baseline="middle">{CONTENT}
  <rect x="0.71" y="0.97" width="0.16" height="0.05" fill="none" stroke="none"/>
  <text x="0.71" y="0.985" fill="#1A1A1A" font-size="11" font-family="Microsoft YaHei">{CONTENT}
  <text x="0.71" y="12.985000000000001" fill="#1A1A1A" font-size="11" font-family="Microsoft YaHei">{CONTENT}
  <rect x="0.96" y="0.98" width="0.05" height="0.04" fill="#E8E8E8" stroke="#CCCCCC" stroke-width="1"/>
  <text x="0.985" y="1.0" fill="#999999" font-size="10" font-family="Microsoft YaHei" text-anchor="middle" dominant-baseline="middle">{CONTENT}
  <rect x="1.0" y="0.97" width="0.19" height="0.05" fill="none" stroke="none"/>
  <text x="1.0" y="0.985" fill="#1A1A1A" font-size="11" font-family="Microsoft YaHei">{CONTENT}
  <text x="1.0" y="12.985000000000001" fill="#1A1A1A" font-size="11" font-family="Microsoft YaHei">{CONTENT}
  <rect x="0.63" y="1.02" width="0.28" height="0.05" fill="#2E75B6" stroke="#1A1A1A" stroke-width="1"/>
  <rect x="0.94" y="1.02" width="0.28" height="0.05" fill="#2E75B6" stroke="#1A1A1A" stroke-width="1"/>
  <rect x="0.64" y="1.03" width="0.04" height="0.04" fill="#E8E8E8" stroke="#CCCCCC" stroke-width="1"/>
  <text x="0.66" y="1.05" fill="#999999" font-size="10" font-family="Microsoft YaHei" text-anchor="middle" dominant-baseline="middle">{CONTENT}
  <rect x="0.71" y="1.02" width="0.16" height="0.05" fill="none" stroke="none"/>
  <text x="0.71" y="1.035" fill="#1A1A1A" font-size="11" font-family="Microsoft YaHei">{CONTENT}
  <text x="0.71" y="13.035" fill="#1A1A1A" font-size="11" font-family="Microsoft YaHei">{CONTENT}
  <rect x="0.98" y="1.03" width="0.18" height="0.03" fill="none" stroke="none"/>
  <text x="0.98" y="1.039" fill="#1A1A1A" font-size="11" font-family="Microsoft YaHei">{CONTENT}
  <rect x="122.37" y="78.83" width="1137.76" height="61.07" fill="#E2F0D9" stroke="#E2F0D9" stroke-width="2.0"/>
  <rect x="130.17" y="93.43" width="990.42" height="33.8" fill="none" stroke="none"/>
  <text x="130.17" y="103.57000000000001" fill="#1A1A1A" font-size="11" font-family="Microsoft YaHei">{CONTENT}
  <rect x="26.3" y="78.83" width="80.34" height="61.07" fill="#75BC60" stroke="#E2F0D9" stroke-width="2.0"/>
  <text x="26.3" y="100.2045" fill="#1A1A1A" font-size="9" font-family="Microsoft YaHei">{CONTENT}

</svg>