<svg xmlns="http://www.w3.org/2000/svg" viewBox="0 0 1280 720">
<!-- Extracted from source PPT, text placeholders: {CONTENT} -->
  <rect x="33.93" y="32.33" width="1094.23" height="73.07" fill="none" stroke="none" stroke-width="0"/>
  <text x="33.93" y="57.9045" fill="#1A1A1A" font-size="11" font-family="Microsoft YaHei">{CONTENT}

  <rect x="1128.16" y="28.6" width="112.87" height="31.33" fill="#E8E8E8" stroke="#CCCCCC" stroke-width="1"/>
  <text x="1184.595" y="44.265" fill="#999999" font-size="10" font-family="Microsoft YaHei" text-anchor="middle" dominant-baseline="middle">{CONTENT}
  <rect x="34.33" y="123.33" width="1208.83" height="139.93" fill="none" stroke="#1A1A1A" stroke-width="1"/>
  <rect x="34.33" y="151.2" width="475.55" height="516.13" fill="none" stroke="#1A1A1A" stroke-width="1"/>
  <rect x="0.15" y="0.28" width="0.61" height="0.29" fill="#1A1A1A" stroke="#1A1A1A" stroke-width="1"/>
  <rect x="0.07" y="0.33" width="0.06" height="0.18" fill="none" stroke="none"/>
  <text x="0.07" y="0.384" fill="#1A1A1A" font-size="11" font-family="Microsoft YaHei">{CONTENT}
  <rect x="0.15" y="0.3" width="0.6" height="0.22" fill="none" stroke="none"/>
  <text x="0.15" y="0.366" fill="#1A1A1A" font-size="11" font-family="Microsoft YaHei">{CONTENT}
  <rect x="0.07" y="0.73" width="0.06" height="0.18" fill="none" stroke="none"/>
  <text x="0.07" y="0.784" fill="#1A1A1A" font-size="11" font-family="Microsoft YaHei">{CONTENT}
  <rect x="0.15" y="0.67" width="0.61" height="0.29" fill="#1A1A1A" stroke="#1A1A1A" stroke-width="1"/>
  <rect x="0.15" y="0.68" width="0.6" height="0.28" fill="none" stroke="none"/>
  <text x="0.15" y="0.764" fill="#1A1A1A" font-size="11" font-family="Microsoft YaHei">{CONTENT}
  <rect x="34.33" y="96.8" width="279.41" height="53.2" fill="#A7D18E" stroke="#1A1A1A" stroke-width="1"/>
  <rect x="77.6" y="90.43" width="187.54" height="58.07" fill="none" stroke="none"/>
  <text x="77.6" y="107.851" fill="#1A1A1A" font-size="11" font-family="Microsoft YaHei">{CONTENT}
  <rect x="538.48" y="88.0" width="698.62" height="575.53" fill="#1A1A1A" stroke="#1A1A1A" stroke-width="1"/>
  <!-- shape type FREEFORM (5) at 0.42,0.66 1.16x0.23 -->
  <!-- shape type FREEFORM (5) at 0.53,0.24 0.94x0.5 -->
  <!-- shape type FREEFORM (5) at 0.62,0.74 0.75x0.15 -->
  <!-- shape type FREEFORM (5) at 0.72,0.83 0.55x0.11 -->
  <!-- shape type FREEFORM (5) at 0.53,0.65 0.94x0.19 -->
  <!-- shape type FREEFORM (5) at 0.53,0.63 0.94x0.19 -->
  <rect x="0.85" y="0.76" width="0.31" height="0.03" fill="none" stroke="#1A1A1A" stroke-width="1"/>
  <rect x="0.58" y="0.4" width="0.07" height="0.07" fill="#77BD5C" stroke="#1A1A1A" stroke-width="0.33"/>
  <rect x="0.79" y="0.23" width="0.07" height="0.07" fill="#77BD5C" stroke="#1A1A1A" stroke-width="0.33"/>
  <rect x="1.34" y="0.4" width="0.07" height="0.07" fill="#77BD5C" stroke="#1A1A1A" stroke-width="0.33"/>
  <rect x="1.35" y="0.41" width="0.04" height="0.04" fill="#E8E8E8" stroke="#CCCCCC" stroke-width="1"/>
  <text x="1.37" y="0.43" fill="#999999" font-size="10" font-family="Microsoft YaHei" text-anchor="middle" dominant-baseline="middle">{CONTENT}
  <rect x="0.86" y="0.71" width="0.28" height="0.05" fill="none" stroke="none"/>
  <text x="0.86" y="0.725" fill="#1A1A1A" font-size="11" font-family="Microsoft YaHei">{CONTENT}
  <rect x="0.86" y="0.84" width="0.28" height="0.05" fill="none" stroke="none"/>
  <text x="0.86" y="0.855" fill="#1A1A1A" font-size="11" font-family="Microsoft YaHei">{CONTENT}
  <rect x="0.8" y="0.53" width="0.38" height="0.05" fill="none" stroke="none"/>
  <text x="0.8" y="0.545" fill="#1A1A1A" font-size="11" font-family="Microsoft YaHei">{CONTENT}
  <rect x="0.7" y="0.17" width="0.23" height="0.05" fill="none" stroke="none"/>
  <text x="0.7" y="0.185" fill="#1A1A1A" font-size="11" font-family="Microsoft YaHei">{CONTENT}
  <rect x="0.46" y="0.33" width="0.23" height="0.05" fill="none" stroke="none"/>
  <text x="0.46" y="0.34500000000000003" fill="#1A1A1A" font-size="11" font-family="Microsoft YaHei">{CONTENT}
  <rect x="1.11" y="0.23" width="0.07" height="0.07" fill="#77BD5C" stroke="#1A1A1A" stroke-width="0.33"/>
  <rect x="1.13" y="0.25" width="0.04" height="0.04" fill="#E8E8E8" stroke="#CCCCCC" stroke-width="1"/>
  <text x="1.15" y="0.27" fill="#999999" font-size="10" font-family="Microsoft YaHei" text-anchor="middle" dominant-baseline="middle">{CONTENT}
  <rect x="0.8" y="0.25" width="0.05" height="0.05" fill="#E8E8E8" stroke="#CCCCCC" stroke-width="1"/>
  <text x="0.8250000000000001" y="0.275" fill="#999999" font-size="10" font-family="Microsoft YaHei" text-anchor="middle" dominant-baseline="middle">{CONTENT}
  <rect x="1.05" y="0.17" width="0.23" height="0.05" fill="none" stroke="none"/>
  <text x="1.05" y="0.185" fill="#1A1A1A" font-size="11" font-family="Microsoft YaHei">{CONTENT}
  <rect x="0.59" y="0.41" width="0.04" height="0.04" fill="#E8E8E8" stroke="#CCCCCC" stroke-width="1"/>
  <text x="0.61" y="0.43" fill="#999999" font-size="10" font-family="Microsoft YaHei" text-anchor="middle" dominant-baseline="middle">{CONTENT}
  <rect x="1.3" y="0.33" width="0.23" height="0.05" fill="none" stroke="none"/>
  <text x="1.3" y="0.34500000000000003" fill="#1A1A1A" font-size="11" font-family="Microsoft YaHei">{CONTENT}
  <!-- shape type FREEFORM (5) at 1.0,0.44 0.08x0.13 -->
  <!-- shape type FREEFORM (5) at 0.84,0.35 0.32x0.28 -->
  <!-- shape type FREEFORM (5) at 0.87,0.38 0.25x0.22 -->
  <!-- shape type FREEFORM (5) at 0.92,0.4 0.15x0.09 -->
  <!-- shape type FREEFORM (5) at 0.92,0.44 0.08x0.13 -->
  <rect x="0.95" y="0.44" width="0.1" height="0.1" fill="#E8E8E8" stroke="#CCCCCC" stroke-width="1"/>
  <text x="1.0" y="0.49" fill="#999999" font-size="10" font-family="Microsoft YaHei" text-anchor="middle" dominant-baseline="middle">{CONTENT}
  <rect x="1.11" y="0.46" width="0.23" height="0.03" fill="none" stroke="#1A1A1A" stroke-width="1"/>
  <rect x="0.66" y="0.46" width="0.23" height="0.03" fill="none" stroke="#1A1A1A" stroke-width="1"/>
  <rect x="0.83" y="0.33" width="0.12" height="0.04" fill="none" stroke="#1A1A1A" stroke-width="1"/>
  <rect x="1.02" y="0.32" width="0.12" height="0.04" fill="none" stroke="#1A1A1A" stroke-width="1"/>
  <rect x="1.41" y="0.45" width="0.12" height="0.04" fill="none" stroke="none"/>
  <text x="1.41" y="0.462" fill="#1A1A1A" font-size="11" font-family="Microsoft YaHei">{CONTENT}
  <rect x="0.6" y="0.68" width="0.08" height="0.02" fill="none" stroke="#1A1A1A" stroke-width="1"/>
  <rect x="0.7" y="0.7" width="0.08" height="0.02" fill="none" stroke="#1A1A1A" stroke-width="1"/>
  <rect x="0.59" y="0.61" width="0.1" height="0.05" fill="none" stroke="none"/>
  <text x="0.59" y="0.625" fill="#1A1A1A" font-size="11" font-family="Microsoft YaHei">{CONTENT}
  <rect x="0.79" y="0.72" width="0.08" height="0.02" fill="none" stroke="#1A1A1A" stroke-width="1"/>
  <rect x="1.2" y="0.7" width="0.08" height="0.02" fill="none" stroke="#1A1A1A" stroke-width="1"/>
  <rect x="1.12" y="0.72" width="0.08" height="0.02" fill="none" stroke="#1A1A1A" stroke-width="1"/>
  <rect x="1.29" y="0.68" width="0.08" height="0.02" fill="none" stroke="#1A1A1A" stroke-width="1"/>
  <rect x="0.69" y="0.62" width="0.1" height="0.05" fill="none" stroke="none"/>
  <text x="0.69" y="0.635" fill="#1A1A1A" font-size="11" font-family="Microsoft YaHei">{CONTENT}
  <rect x="0.77" y="0.64" width="0.1" height="0.05" fill="none" stroke="none"/>
  <text x="0.77" y="0.655" fill="#1A1A1A" font-size="11" font-family="Microsoft YaHei">{CONTENT}
  <rect x="1.11" y="0.64" width="0.1" height="0.05" fill="none" stroke="none"/>
  <text x="1.11" y="0.655" fill="#1A1A1A" font-size="11" font-family="Microsoft YaHei">{CONTENT}
  <rect x="1.19" y="0.62" width="0.1" height="0.05" fill="none" stroke="none"/>
  <text x="1.19" y="0.635" fill="#1A1A1A" font-size="11" font-family="Microsoft YaHei">{CONTENT}
  <rect x="1.28" y="0.61" width="0.1" height="0.05" fill="none" stroke="none"/>
  <text x="1.28" y="0.625" fill="#1A1A1A" font-size="11" font-family="Microsoft YaHei">{CONTENT}
  <rect x="0.93" y="0.6" width="0.13" height="0.09" fill="none" stroke="#1A1A1A" stroke-width="1"/>
  <rect x="0.92" y="0.62" width="0.16" height="0.05" fill="none" stroke="none"/>
  <text x="0.92" y="0.635" fill="#1A1A1A" font-size="11" font-family="Microsoft YaHei">{CONTENT}
  <rect x="0.53" y="0.93" width="0.29" height="0.05" fill="#1A1A1A" stroke="#1A1A1A" stroke-width="1"/>
  <rect x="0.53" y="0.94" width="0.29" height="0.04" fill="none" stroke="none"/>
  <text x="0.53" y="0.952" fill="#1A1A1A" font-size="11" font-family="Microsoft YaHei">{CONTENT}
  <rect x="1.23" y="0.97" width="0.31" height="0.06" fill="#1A1A1A" stroke="#1A1A1A" stroke-width="1"/>
  <rect x="1.58" y="0.97" width="0.31" height="0.06" fill="#1A1A1A" stroke="#1A1A1A" stroke-width="1"/>
  <rect x="1.28" y="0.98" width="0.22" height="0.05" fill="none" stroke="none"/>
  <text x="1.28" y="0.995" fill="#1A1A1A" font-size="11" font-family="Microsoft YaHei">{CONTENT}
  <rect x="1.62" y="0.97" width="0.22" height="0.05" fill="none" stroke="none"/>
  <text x="1.62" y="0.985" fill="#1A1A1A" font-size="11" font-family="Microsoft YaHei">{CONTENT}
  <!-- shape type FREEFORM (5) at 1.12,0.79 0.51x0.18 -->
  <rect x="340.28" y="98.67" width="169.6" height="43.13" fill="none" stroke="#1A1A1A" stroke-width="1.33"/>
</svg>