<svg xmlns="http://www.w3.org/2000/svg" viewBox="0 0 1280 720" style="background:#0A1219">
<!-- HW-S12-greenCards-grid | bg=#0A1219 | 50 shapes -->
  <rect width="1280" height="720" fill="#0A1219"/>
  <rect id="R1" x="76.34" y="207.85" width="240.14" height="157.33" fill="#3C7471" rx="8"/>
  <rect id="R2" x="735.60" y="207.85" width="239.32" height="157.33" fill="#3C7471" rx="8"/>
  <rect id="R3" x="1051.66" y="207.85" width="240.28" height="157.33" fill="#3C7471" rx="8"/>
  <rect id="R4" x="1364.54" y="207.85" width="240.28" height="157.33" fill="#3C7471" rx="8"/>
  <rect id="R5" x="405.62" y="208.48" width="240.14" height="157.33" fill="#3C7471" rx="8"/>
  <rect id="R6" x="76.40" y="352.92" width="240.08" height="49.03" fill="#4DCD82" rx="8"/>
  <rect id="R7" x="734.89" y="352.92" width="240.08" height="49.03" fill="#4DCD82" rx="8"/>
  <rect id="R8" x="1051.86" y="352.92" width="240.08" height="49.03" fill="#4DCD82" rx="8"/>
  <rect id="R9" x="405.68" y="353.55" width="240.08" height="49.03" fill="#4DCD82" rx="8"/>
  <rect id="R10" x="52.78" y="377.44" width="287.32" height="42.94" fill="#4DCD82" rx="8"/>
  <rect id="R11" x="711.27" y="377.44" width="287.32" height="42.94" fill="#4DCD82" rx="8"/>
  <rect id="R12" x="1028.24" y="377.44" width="287.32" height="42.94" fill="#4DCD82" rx="8"/>
  <rect id="R13" x="1341.12" y="377.44" width="287.32" height="42.94" fill="#4DCD82" rx="8"/>
  <rect id="R14" x="382.06" y="378.07" width="287.32" height="42.94" fill="#4DCD82" rx="8"/>
  <rect id="R15" x="406.39" y="478.77" width="239.75" height="157.33" fill="#3C7471" rx="8"/>
  <rect id="R16" x="734.89" y="478.77" width="240.08" height="157.33" fill="#3C7471" rx="8"/>
  <rect id="R17" x="1050.34" y="478.77" width="240.85" height="157.33" fill="#3C7471" rx="8"/>
  <rect id="R18" x="1363.23" y="478.77" width="240.85" height="157.33" fill="#3C7471" rx="8"/>
  <rect id="R19" x="76.88" y="479.23" width="240.32" height="157.33" fill="#3C7471" rx="8"/>
  <rect id="R20" x="734.89" y="623.84" width="240.08" height="49.03" fill="#4DCD82" rx="8"/>
  <rect id="R21" x="382.60" y="648.35" width="287.32" height="42.94" fill="#4DCD82" rx="8"/>
  <rect id="R22" x="711.27" y="648.35" width="287.32" height="42.94" fill="#4DCD82" rx="8"/>
  <rect id="R23" x="1027.49" y="648.35" width="287.32" height="42.94" fill="#4DCD82" rx="8"/>
  <rect id="R24" x="1340.38" y="648.35" width="287.32" height="42.94" fill="#4DCD82" rx="8"/>
  <rect id="R25" x="53.17" y="648.81" width="287.32" height="42.94" fill="#4DCD82" rx="8"/>
  <rect x="45.07" y="28.53" width="404.80" height="61.39" fill="none" stroke="#555555" stroke-width="1" stroke-dasharray="4"/>
  <rect x="44.71" y="108.40" width="760.89" height="41.87" fill="none" stroke="#555555" stroke-width="1" stroke-dasharray="4"/>
  <rect x="78.22" y="463.44" width="237.76" height="172.44" fill="none" stroke="#555555" stroke-width="1" stroke-dasharray="4"/>
  <text x="45.07" y="39.5"  fill="#CCCCCC" font-size="11" font-family="Microsoft YaHei">${长亭红队介绍}</text>
  <text x="44.71" y="119.4"  fill="#CCCCCC" font-size="11" font-family="Microsoft YaHei">${长亭红队多元化的漏洞挖掘能力}</text>
  <text x="428.47" y="175.6"  fill="#CCCCCC" font-size="11" font-family="Microsoft YaHei">${物联网安全}</text>
  <text x="1075.69" y="175.6"  fill="#CCCCCC" font-size="11" font-family="Microsoft YaHei">${浏览器安全}</text>
  <text x="100.09" y="175.9"  fill="#CCCCCC" font-size="11" font-family="Microsoft YaHei">${Web}</text>
  <text x="100.09" y="188.9"  fill="#CCCCCC" font-size="11" font-family="Microsoft YaHei">${安全}</text>
  <text x="758.57" y="176.1"  fill="#CCCCCC" font-size="11" font-family="Microsoft YaHei">${容器}</text>
  <text x="758.57" y="189.1"  fill="#CCCCCC" font-size="11" font-family="Microsoft YaHei">${}</text>
  <text x="758.57" y="202.1"  fill="#CCCCCC" font-size="11" font-family="Microsoft YaHei">${虚拟化安全}</text>
  <text x="1053.25" y="199.5"  fill="#CCCCCC" font-size="11" font-family="Microsoft YaHei">${SafariFirefox}</text>
  <text x="1053.25" y="212.5"  fill="#CCCCCC" font-size="11" font-family="Microsoft YaHei">${微信远程代码执行}</text>
  <text x="1366.14" y="199.5"  fill="#CCCCCC" font-size="11" font-family="Microsoft YaHei">${在信创挑战赛演示操作系统数据库中间件打印}</text>
  <text x="736.59" y="199.8"  fill="#CCCCCC" font-size="11" font-family="Microsoft YaHei">${全球首个}</text>
  <text x="736.59" y="212.8"  fill="#CCCCCC" font-size="11" font-family="Microsoft YaHei">${VMware}</text>
  <text x="736.59" y="225.8"  fill="#CCCCCC" font-size="11" font-family="Microsoft YaHei">${ESXi}</text>
  <text x="76.96" y="200.4"  fill="#CCCCCC" font-size="11" font-family="Microsoft YaHei">${发现主流}</text>
  <text x="76.96" y="213.4"  fill="#CCCCCC" font-size="11" font-family="Microsoft YaHei">${Web}</text>
  <text x="76.96" y="226.4"  fill="#CCCCCC" font-size="11" font-family="Microsoft YaHei">${中间件和应用}</text>
  <text x="407.21" y="200.4"  fill="#CCCCCC" font-size="11" font-family="Microsoft YaHei">${发现数十款路由器摄像头主流智能门锁防火墙}</text>
  <text x="407.21" y="213.4"  fill="#CCCCCC" font-size="11" font-family="Microsoft YaHei">${POS}</text>
  <text x="407.21" y="226.4"  fill="#CCCCCC" font-size="11" font-family="Microsoft YaHei">${机和视频会议设备高危漏洞}</text>
  <text x="101.61" y="449.9"  fill="#CCCCCC" font-size="11" font-family="Microsoft YaHei">${操作系统安全}</text>
  <text x="429.75" y="449.9"  fill="#CCCCCC" font-size="11" font-family="Microsoft YaHei">${区块链安全}</text>
  <text x="757.05" y="449.9"  fill="#CCCCCC" font-size="11" font-family="Microsoft YaHei">${游戏安全}</text>
  <text x="1075.69" y="449.9"  fill="#CCCCCC" font-size="11" font-family="Microsoft YaHei">${车联网}</text>
  <text x="407.77" y="473.7"  fill="#CCCCCC" font-size="11" font-family="Microsoft YaHei">${发现多个公链以太坊智能合约漏洞}</text>
  <text x="736.71" y="473.7"  fill="#CCCCCC" font-size="11" font-family="Microsoft YaHei">${中国首个}</text>
  <text x="736.71" y="486.7"  fill="#CCCCCC" font-size="11" font-family="Microsoft YaHei">${PS4}</text>
  <text x="736.71" y="499.7"  fill="#CCCCCC" font-size="11" font-family="Microsoft YaHei">${远程越狱}</text>
  <text x="78.22" y="474.4"  fill="#CCCCCC" font-size="11" font-family="Microsoft YaHei">${UbuntuWindowsmacOSAn}</text>
  <text x="78.22" y="487.4"  fill="#CCCCCC" font-size="11" font-family="Microsoft YaHei">${提权漏洞}</text>
  <text x="1051.27" y="474.4"  fill="#CCCCCC" font-size="11" font-family="Microsoft YaHei">${雪佛兰克鲁兹}</text>
  <text x="1051.27" y="487.4"  fill="#CCCCCC" font-size="11" font-family="Microsoft YaHei">${CAN}</text>
  <text x="1051.27" y="500.4"  fill="#CCCCCC" font-size="11" font-family="Microsoft YaHei">${总线协议逆向与重放}</text>
  <text x="1364.16" y="474.4"  fill="#CCCCCC" font-size="11" font-family="Microsoft YaHei">${在国内主流}</text>
  <text x="1364.16" y="487.4"  fill="#CCCCCC" font-size="11" font-family="Microsoft YaHei">${VPN}</text>
  <text x="1364.16" y="500.4"  fill="#CCCCCC" font-size="11" font-family="Microsoft YaHei">${主机安全堡垒机终端安全防火墙中发现大量远}</text>
</svg>