<svg xmlns="http://www.w3.org/2000/svg" viewBox="0 0 1280 720">
<!-- L-R (left content + right 3col cards) | bg=#FFFFFF | 29 shapes -->
  <rect width="1280" height="720" fill="#FFFFFF"/>
  <rect x="33.93" y="32.33" width="1094.23" height="73.07" fill="#000000" rx="6"/>
  <rect x="858.35" y="105.40" width="384.88" height="556.40" fill="#FFFFFF" rx="6"/>
  <rect x="70.34" y="132.33" width="160.47" height="329.53" fill="#70AD47" rx="6"/>
  <rect x="33.93" y="133.53" width="798.95" height="528.27" fill="#FFFFFF" rx="6"/>
  <rect x="362.94" y="139.33" width="215.47" height="116.73" fill="#000000" rx="6"/>
  <rect x="281.61" y="184.27" width="527.55" height="428.40" fill="#70AD47" rx="6"/>
  <rect x="873.96" y="236.73" width="182.80" height="32.20" fill="#3DA13D" rx="6"/>
  <rect x="236.14" y="251.60" width="248.87" height="116.73" fill="#000000" rx="6"/>
  <rect x="873.96" y="266.80" width="357.54" height="64.40" fill="#FF0000" rx="6"/>
  <rect x="733.28" y="284.20" width="85.14" height="35.40" fill="#43A765" rx="6"/>
  <rect x="871.56" y="371.47" width="359.94" height="131.20" fill="#FFFFFF" rx="6"/>
  <rect x="550.35" y="490.67" width="66.33" height="35.40" fill="#43A765" rx="3"/>
  <rect x="872.82" y="523.00" width="182.80" height="32.20" fill="#3DA13D" rx="6"/>
  <rect x="872.82" y="550.80" width="367.93" height="93.48" fill="#FF0000" rx="6"/>
  <rect x="461.21" y="588.60" width="66.33" height="35.40" fill="#43A765" rx="3"/>
  <text x="33.93" y="43.3"  fill="#888888" font-size="11" font-family="Microsoft YaHei">${企业发展历程及基本理念}</text>
  <text x="33.93" y="97.5"  fill="#888888" font-size="11" font-family="Microsoft YaHei">${自创建以来}</text>
  <text x="33.93" y="111.5"  fill="#888888" font-size="11" font-family="Microsoft YaHei">${}</text>
  <text x="33.93" y="125.5"  fill="#888888" font-size="11" font-family="Microsoft YaHei">${长亭产品技术持续实现维度突破与阶跃上升}</text>
  <text x="881.36" y="97.5"  fill="#888888" font-size="11" font-family="Microsoft YaHei">${知攻善防}</text>
  <text x="881.36" y="111.5"  fill="#888888" font-size="11" font-family="Microsoft YaHei">${}</text>
  <text x="881.36" y="125.5"  fill="#888888" font-size="11" font-family="Microsoft YaHei">${智能安全}</text>
  <text x="858.43" y="144.6"  fill="#888888" font-size="11" font-family="Microsoft YaHei">${从攻击视角构建防御体系}</text>
  <text x="858.43" y="158.6"  fill="#888888" font-size="11" font-family="Microsoft YaHei">${以}</text>
  <text x="858.43" y="172.6"  fill="#888888" font-size="11" font-family="Microsoft YaHei">${AI}</text>
  <text x="858.43" y="186.6"  fill="#888888" font-size="11" font-family="Microsoft YaHei">${驱动重塑安全运营}</text>
  <text x="362.94" y="150.3"  fill="#888888" font-size="11" font-family="Microsoft YaHei">${AI智能驱动安全运营}</text>
  <text x="362.94" y="164.3"  fill="#888888" font-size="11" font-family="Microsoft YaHei">${提质增效}</text>
  <text x="362.94" y="178.3"  fill="#888888" font-size="11" font-family="Microsoft YaHei">${始于202}</text>
  <text x="362.94" y="192.3"  fill="#888888" font-size="11" font-family="Microsoft YaHei">${4}</text>
  <text x="873.96" y="247.7"  fill="#888888" font-size="11" font-family="Microsoft YaHei">${安服能力}</text>
  <text x="236.14" y="262.6"  fill="#888888" font-size="11" font-family="Microsoft YaHei">${体系化产品服务布局}</text>
  <text x="236.14" y="276.6"  fill="#888888" font-size="11" font-family="Microsoft YaHei">${}</text>
  <text x="236.14" y="290.6"  fill="#888888" font-size="11" font-family="Microsoft YaHei">${常态化安全运营解决方案}</text>
  <text x="236.14" y="304.6"  fill="#888888" font-size="11" font-family="Microsoft YaHei">${始于2020}</text>
  <text x="873.96" y="277.8"  fill="#888888" font-size="11" font-family="Microsoft YaHei">${安服工业化}</text>
  <text x="873.96" y="291.8"  fill="#888888" font-size="11" font-family="Microsoft YaHei">${成熟实践拥有多样的安服工具同时具备最高素}</text>
  <text x="873.96" y="305.8"  fill="#888888" font-size="11" font-family="Microsoft YaHei">${}</text>
  <text x="733.28" y="295.2"  fill="#888888" font-size="11" font-family="Microsoft YaHei">${AI}</text>
  <text x="733.28" y="309.2"  fill="#888888" font-size="11" font-family="Microsoft YaHei">${智能}</text>
  <text x="871.56" y="382.5"  fill="#888888" font-size="11" font-family="Microsoft YaHei">${产品能力}</text>
  <text x="871.56" y="396.5"  fill="#888888" font-size="11" font-family="Microsoft YaHei">${自研核心技术}</text>
  <text x="871.56" y="410.5"  fill="#888888" font-size="11" font-family="Microsoft YaHei">${业界领先涵盖攻防的完整产品体系为}</text>
  <text x="871.56" y="424.5"  fill="#888888" font-size="11" font-family="Microsoft YaHei">${AI}</text>
  <text x="150.14" y="397.5"  fill="#888888" font-size="11" font-family="Microsoft YaHei">${全面覆盖攻防主战场}</text>
  <text x="150.14" y="411.5"  fill="#888888" font-size="11" font-family="Microsoft YaHei">${的产品体系}</text>
  <text x="150.14" y="425.5"  fill="#888888" font-size="11" font-family="Microsoft YaHei">${始于2016}</text>
  <text x="646.35" y="397.5"  fill="#888888" font-size="11" font-family="Microsoft YaHei">${运营}</text>
  <text x="550.35" y="501.7"  fill="#888888" font-size="11" font-family="Microsoft YaHei">${产品}</text>
  <text x="57.67" y="532.0"  fill="#888888" font-size="11" font-family="Microsoft YaHei">${顶级的安全技术团队}</text>
  <text x="57.67" y="546.0"  fill="#888888" font-size="11" font-family="Microsoft YaHei">${领先的攻防技术体系}</text>
  <text x="57.67" y="560.0"  fill="#888888" font-size="11" font-family="Microsoft YaHei">${始于2014}</text>
  <text x="872.82" y="534.0"  fill="#888888" font-size="11" font-family="Microsoft YaHei">${算法大模型}</text>
  <text x="872.82" y="548.0"  fill="#888888" font-size="11" font-family="Microsoft YaHei">${能力}</text>
  <text x="872.82" y="561.8"  fill="#888888" font-size="11" font-family="Microsoft YaHei">${全面对接主流大模型积极拥抱}</text>
  <text x="872.82" y="575.8"  fill="#888888" font-size="11" font-family="Microsoft YaHei">${}</text>
  <text x="872.82" y="589.8"  fill="#888888" font-size="11" font-family="Microsoft YaHei">${LangChain}</text>
  <text x="872.82" y="603.8"  fill="#888888" font-size="11" font-family="Microsoft YaHei">${}</text>
  <text x="461.21" y="599.6"  fill="#888888" font-size="11" font-family="Microsoft YaHei">${服务}</text>
</svg>