<svg xmlns="http://www.w3.org/2000/svg" viewBox="0 0 1280 720">
<!-- L-R (攻防 left panel + right content) | bg=#FFFFFF | 92 shapes -->
  <rect width="1280" height="720" fill="#FFFFFF"/>
  <rect x="33.93" y="32.33" width="1094.23" height="73.07" fill="#000000" rx="6"/>
  <rect x="33.93" y="90.20" width="263.47" height="53.20" fill="#A7D18E" rx="6"/>
  <rect x="445.88" y="90.20" width="791.22" height="599.73" fill="#FFFFFF" rx="6"/>
  <rect x="742.08" y="102.13" width="337.94" height="33.41" fill="#77BD5C" rx="6"/>
  <rect x="832.31" y="143.35" width="154.05" height="468.02" fill="#000000" rx="6"/>
  <rect x="905.05" y="151.37" width="84.16" height="25.74" fill="#548235" rx="6"/>
  <rect x="831.59" y="151.64" width="84.16" height="25.74" fill="#548235" rx="6"/>
  <rect x="767.49" y="159.45" width="84.16" height="25.74" fill="#548235" rx="6"/>
  <rect x="58.80" y="243.47" width="326.14" height="184.47" fill="#FFFFFF" rx="6"/>
  <rect x="656.06" y="363.24" width="112.29" height="41.90" fill="#54B38C" rx="6"/>
  <rect x="769.49" y="363.24" width="122.43" height="41.90" fill="#54B38C" rx="6"/>
  <rect x="1074.30" y="369.49" width="83.45" height="41.90" fill="#77BD5C" rx="6"/>
  <rect x="661.55" y="428.29" width="232.36" height="216.76" fill="#000000" rx="6"/>
  <rect x="58.80" y="457.40" width="326.14" height="184.53" fill="#FFFFFF" rx="6"/>
  <rect x="58.80" y="460.60" width="326.14" height="178.33" fill="#C00000" rx="6"/>
  <rect x="629.22" y="464.01" width="95.01" height="48.35" fill="#4472C4" rx="6"/>
  <rect x="669.83" y="575.79" width="120.86" height="41.90" fill="#4472C4" rx="6"/>
  <rect x="790.69" y="576.20" width="91.02" height="41.90" fill="#4472C4" rx="6"/>
  <rect x="1009.06" y="580.20" width="78.31" height="41.90" fill="#54B38C" rx="3"/>
  <rect x="813.25" y="648.99" width="215.08" height="28.93" fill="#77BD5C" rx="6"/>
  <text x="33.93" y="43.3"  fill="#888888" font-size="11" font-family="Microsoft YaHei">${防}</text>
  <text x="33.93" y="57.3"  fill="#888888" font-size="11" font-family="Microsoft YaHei">${}</text>
  <text x="33.93" y="71.3"  fill="#888888" font-size="11" font-family="Microsoft YaHei">${常态化主防体系}</text>
  <text x="70.40" y="93.0"  fill="#888888" font-size="11" font-family="Microsoft YaHei">${重点需求场景}</text>
  <text x="742.08" y="113.1"  fill="#888888" font-size="11" font-family="Microsoft YaHei">${攻防能力建设规划}</text>
  <text x="1153.54" y="118.3"  fill="#888888" font-size="11" font-family="Microsoft YaHei">${长线提升}</text>
  <text x="449.88" y="139.8"  fill="#888888" font-size="11" font-family="Microsoft YaHei">${复盘总结}</text>
  <text x="905.05" y="162.4"  fill="#888888" font-size="11" font-family="Microsoft YaHei">${应急响应}</text>
  <text x="831.59" y="162.6"  fill="#888888" font-size="11" font-family="Microsoft YaHei">${分析研判}</text>
  <text x="767.49" y="170.4"  fill="#888888" font-size="11" font-family="Microsoft YaHei">${风险监测}</text>
  <text x="970.01" y="170.4"  fill="#888888" font-size="11" font-family="Microsoft YaHei">${溯源反制}</text>
  <text x="1153.54" y="180.4"  fill="#888888" font-size="11" font-family="Microsoft YaHei">${值守保障}</text>
  <text x="1031.54" y="185.5"  fill="#888888" font-size="11" font-family="Microsoft YaHei">${情报共享}</text>
  <text x="706.88" y="185.8"  fill="#888888" font-size="11" font-family="Microsoft YaHei">${威胁狩猎}</text>
  <text x="107.20" y="196.1"  fill="#888888" font-size="11" font-family="Microsoft YaHei">${常态化实战攻防演练}</text>
  <text x="808.61" y="232.4"  fill="#888888" font-size="11" font-family="Microsoft YaHei">${现场保障虚拟坐席MSS远程}</text>
  <text x="58.80" y="270.6"  fill="#888888" font-size="11" font-family="Microsoft YaHei">${企业}</text>
  <text x="58.80" y="284.6"  fill="#888888" font-size="11" font-family="Microsoft YaHei">${以防守方角色参与对外攻防演练}</text>
  <text x="58.80" y="298.6"  fill="#888888" font-size="11" font-family="Microsoft YaHei">${例如国家级演练区域演练行业演练等}</text>
  <text x="58.80" y="312.6"  fill="#888888" font-size="11" font-family="Microsoft YaHei">${通过参与演练磨练防护体系是企业进行实战安}</text>
  <text x="1153.54" y="277.3"  fill="#888888" font-size="11" font-family="Microsoft YaHei">${模拟演练}</text>
  <text x="699.82" y="297.0"  fill="#888888" font-size="11" font-family="Microsoft YaHei">${实战模拟}</text>
  <text x="699.82" y="311.0"  fill="#888888" font-size="11" font-family="Microsoft YaHei">${沙盘模拟}</text>
  <text x="699.82" y="325.0"  fill="#888888" font-size="11" font-family="Microsoft YaHei">${集中优化}</text>
  <text x="449.88" y="304.1"  fill="#888888" font-size="11" font-family="Microsoft YaHei">${数据分析}</text>
  <text x="892.06" y="358.6"  fill="#888888" font-size="11" font-family="Microsoft YaHei">${设备布防}</text>
  <text x="1122.56" y="359.2"  fill="#888888" font-size="11" font-family="Microsoft YaHei">${蜜罐}</text>
  <text x="1122.56" y="373.2"  fill="#888888" font-size="11" font-family="Microsoft YaHei">${运营}</text>
  <text x="656.06" y="374.2"  fill="#888888" font-size="11" font-family="Microsoft YaHei">${重点监控场景构建}</text>
  <text x="769.49" y="374.2"  fill="#888888" font-size="11" font-family="Microsoft YaHei">${平战运营策略}</text>
  <text x="769.49" y="388.2"  fill="#888888" font-size="11" font-family="Microsoft YaHei">${切换}</text>
  <text x="930.96" y="380.5"  fill="#888888" font-size="11" font-family="Microsoft YaHei">${漏洞加固}</text>
  <text x="969.15" y="380.5"  fill="#888888" font-size="11" font-family="Microsoft YaHei">${暴露面}</text>
  <text x="969.15" y="394.5"  fill="#888888" font-size="11" font-family="Microsoft YaHei">${收敛}</text>
  <text x="1022.41" y="380.5"  fill="#888888" font-size="11" font-family="Microsoft YaHei">${增强审计措施}</text>
  <text x="1074.30" y="380.5"  fill="#888888" font-size="11" font-family="Microsoft YaHei">${网络}</text>
  <text x="1074.30" y="394.5"  fill="#888888" font-size="11" font-family="Microsoft YaHei">${ACL}</text>
  <text x="1074.30" y="408.5"  fill="#888888" font-size="11" font-family="Microsoft YaHei">${收敛}</text>
  <text x="449.88" y="463.2"  fill="#888888" font-size="11" font-family="Microsoft YaHei">${方案设计}</text>
  <text x="58.80" y="471.6"  fill="#888888" font-size="11" font-family="Microsoft YaHei">${企业具备一定的安全建设基础}</text>
  <text x="58.80" y="485.6"  fill="#888888" font-size="11" font-family="Microsoft YaHei">${}</text>
  <text x="58.80" y="499.6"  fill="#888888" font-size="11" font-family="Microsoft YaHei">${期望}</text>
  <text x="58.80" y="513.6"  fill="#888888" font-size="11" font-family="Microsoft YaHei">${借助演练搭建防护体系并融入日常安全运营}</text>
  <text x="706.88" y="472.8"  fill="#888888" font-size="11" font-family="Microsoft YaHei">${防护策略有效性验证}</text>
  <text x="962.30" y="472.8"  fill="#888888" font-size="11" font-family="Microsoft YaHei">${防护策略有效性验证}</text>
  <text x="629.22" y="475.0"  fill="#888888" font-size="11" font-family="Microsoft YaHei">${宣贯}</text>
  <text x="629.22" y="489.0"  fill="#888888" font-size="11" font-family="Microsoft YaHei">${培训}</text>
  <text x="1153.54" y="499.3"  fill="#888888" font-size="11" font-family="Microsoft YaHei">${布防加固}</text>
  <text x="1154.68" y="533.8"  fill="#888888" font-size="11" font-family="Microsoft YaHei">${摸底评估}</text>
  <text x="918.40" y="571.2"  fill="#888888" font-size="11" font-family="Microsoft YaHei">${渗透}</text>
  <text x="918.40" y="585.2"  fill="#888888" font-size="11" font-family="Microsoft YaHei">${测试}</text>
  <text x="1122.56" y="571.2"  fill="#888888" font-size="11" font-family="Microsoft YaHei">${专项评估}</text>
  <text x="961.87" y="584.8"  fill="#888888" font-size="11" font-family="Microsoft YaHei">${基线评估}</text>
  <text x="1083.23" y="584.8"  fill="#888888" font-size="11" font-family="Microsoft YaHei">${供应链}</text>
  <text x="669.83" y="586.8"  fill="#888888" font-size="11" font-family="Microsoft YaHei">${关键运营流程评估}</text>
  <text x="790.69" y="587.2"  fill="#888888" font-size="11" font-family="Microsoft YaHei">${组织人员}</text>
  <text x="790.69" y="601.2"  fill="#888888" font-size="11" font-family="Microsoft YaHei">${评估}</text>
  <text x="1009.06" y="591.2"  fill="#888888" font-size="11" font-family="Microsoft YaHei">${攻击路径}</text>
  <text x="1009.06" y="605.2"  fill="#888888" font-size="11" font-family="Microsoft YaHei">${分析}</text>
  <text x="449.88" y="629.7"  fill="#888888" font-size="11" font-family="Microsoft YaHei">${准备调研}</text>
  <text x="744.72" y="639.1"  fill="#888888" font-size="11" font-family="Microsoft YaHei">${管理}</text>
  <text x="1015.91" y="640.4"  fill="#888888" font-size="11" font-family="Microsoft YaHei">${技术}</text>
  <text x="813.25" y="660.0"  fill="#888888" font-size="11" font-family="Microsoft YaHei">${安全攻防能力成熟度评估}</text>
  <text x="1153.54" y="661.4"  fill="#888888" font-size="11" font-family="Microsoft YaHei">${梳理筹备}</text>
</svg>