<svg xmlns="http://www.w3.org/2000/svg" viewBox="0 0 1280 720">
<!-- 3-col (left+center cards+right) | bg=#FFFFFF | 34 shapes -->
  <rect width="1280" height="720" fill="#FFFFFF"/>
  <rect x="33.93" y="32.33" width="1094.23" height="73.07" fill="#000000" rx="6"/>
  <rect x="61.33" y="67.80" width="1154.23" height="151.73" fill="#FF0000" rx="6"/>
  <rect x="38.07" y="85.87" width="1200.50" height="135.07" fill="#FFFFFF" rx="6"/>
  <rect x="33.93" y="239.20" width="251.21" height="435.73" fill="#FFFFFF" rx="6"/>
  <rect x="41.27" y="241.93" width="233.83" height="419.68" fill="#FF0000" rx="6"/>
  <rect x="992.49" y="241.93" width="250.34" height="431.87" fill="#FFFFFF" rx="6"/>
  <rect x="996.76" y="242.27" width="241.74" height="423.20" fill="#FF0000" rx="6"/>
  <rect x="575.45" y="250.19" width="120.80" height="38.78" fill="#A6A6A6" rx="6"/>
  <rect x="296.85" y="251.15" width="684.11" height="427.05" fill="#70AD47" rx="6"/>
  <rect x="434.18" y="400.04" width="408.51" height="278.22" fill="#70AD47" rx="6"/>
  <rect x="867.11" y="402.44" width="120.87" height="38.78" fill="#A6A6A6" rx="6"/>
  <rect x="282.66" y="402.57" width="120.87" height="38.67" fill="#A6A6A6" rx="6"/>
  <rect x="463.44" y="431.24" width="349.14" height="247.02" fill="#70AD47" rx="6"/>
  <rect x="489.12" y="460.72" width="150.64" height="218.27" fill="#000000" rx="6"/>
  <rect x="639.10" y="460.72" width="150.64" height="218.27" fill="#000000" rx="6"/>
  <rect x="579.27" y="460.97" width="119.07" height="81.09" fill="#77BD5C" rx="6"/>
  <rect x="457.88" y="531.15" width="131.91" height="87.16" fill="#77BD5C" rx="6"/>
  <rect x="687.88" y="531.46" width="119.07" height="85.51" fill="#77BD5C" rx="6"/>
  <text x="33.93" y="43.3"  fill="#888888" font-size="11" font-family="Microsoft YaHei">${安全服务体系}</text>
  <text x="61.33" y="78.8"  fill="#888888" font-size="11" font-family="Microsoft YaHei">${常态化主}</text>
  <text x="61.33" y="92.8"  fill="#888888" font-size="11" font-family="Microsoft YaHei">${防}</text>
  <text x="61.33" y="106.8"  fill="#888888" font-size="11" font-family="Microsoft YaHei">${体系}</text>
  <text x="61.33" y="120.8"  fill="#888888" font-size="11" font-family="Microsoft YaHei">${在企业已具备的安全基础之上}</text>
  <text x="41.27" y="252.9"  fill="#888888" font-size="11" font-family="Microsoft YaHei">${自动化}</text>
  <text x="41.27" y="266.9"  fill="#888888" font-size="11" font-family="Microsoft YaHei">${攻}</text>
  <text x="41.27" y="280.9"  fill="#888888" font-size="11" font-family="Microsoft YaHei">${防体系}</text>
  <text x="41.27" y="294.9"  fill="#888888" font-size="11" font-family="Microsoft YaHei">${}</text>
  <text x="996.76" y="253.3"  fill="#888888" font-size="11" font-family="Microsoft YaHei">${系统化人才}</text>
  <text x="996.76" y="267.3"  fill="#888888" font-size="11" font-family="Microsoft YaHei">${培}</text>
  <text x="996.76" y="281.3"  fill="#888888" font-size="11" font-family="Microsoft YaHei">${养体系}</text>
  <text x="996.76" y="295.3"  fill="#888888" font-size="11" font-family="Microsoft YaHei">${围绕}</text>
  <text x="575.45" y="261.2"  fill="#888888" font-size="11" font-family="Microsoft YaHei">${巩固防护}</text>
  <text x="603.76" y="358.9"  fill="#888888" font-size="11" font-family="Microsoft YaHei">${防}</text>
  <text x="867.11" y="413.4"  fill="#888888" font-size="11" font-family="Microsoft YaHei">${提升能力}</text>
  <text x="282.66" y="413.6"  fill="#888888" font-size="11" font-family="Microsoft YaHei">${发现风险}</text>
  <text x="385.54" y="471.7"  fill="#888888" font-size="11" font-family="Microsoft YaHei">${攻}</text>
  <text x="579.27" y="472.0"  fill="#888888" font-size="11" font-family="Microsoft YaHei">${御衡安全}</text>
  <text x="579.27" y="486.0"  fill="#888888" font-size="11" font-family="Microsoft YaHei">${验证平台}</text>
  <text x="819.46" y="472.6"  fill="#888888" font-size="11" font-family="Microsoft YaHei">${培}</text>
  <text x="457.88" y="542.1"  fill="#888888" font-size="11" font-family="Microsoft YaHei">${无锋自动化渗透平台}</text>
  <text x="687.88" y="542.5"  fill="#888888" font-size="11" font-family="Microsoft YaHei">${墨攻实训}</text>
  <text x="687.88" y="556.5"  fill="#888888" font-size="11" font-family="Microsoft YaHei">${平台}</text>
  <text x="578.01" y="577.5"  fill="#888888" font-size="11" font-family="Microsoft YaHei">${智能化}</text>
  <text x="578.01" y="591.5"  fill="#888888" font-size="11" font-family="Microsoft YaHei">${服务平台}</text>
</svg>