<svg xmlns="http://www.w3.org/2000/svg" viewBox="0 0 1280 720">
<!-- Grid/Cards (运营保障多卡片) | bg=#FFFFFF | 88 shapes -->
  <rect width="1280" height="720" fill="#FFFFFF"/>
  <rect x="33.93" y="32.33" width="1094.23" height="73.07" fill="#000000" rx="6"/>
  <rect x="20.58" y="74.78" width="80.34" height="61.07" fill="#75BC60" rx="6"/>
  <rect x="116.65" y="74.78" width="1137.76" height="61.07" fill="#E2F0D9" rx="6"/>
  <rect x="99.54" y="152.53" width="716.28" height="60.20" fill="#7BBD4A" rx="6"/>
  <rect x="21.93" y="152.87" width="808.15" height="285.87" fill="#FFFFFF" rx="6"/>
  <rect x="853.75" y="152.93" width="402.21" height="539.40" fill="#FFFFFF" rx="6"/>
  <rect x="137.67" y="209.67" width="170.74" height="29.13" fill="#79B351" rx="6"/>
  <rect x="326.67" y="210.80" width="170.74" height="29.13" fill="#79B351" rx="6"/>
  <rect x="875.02" y="214.93" width="13.20" height="453.39" fill="#76BD63" rx="3"/>
  <rect x="186.94" y="240.93" width="184.45" height="194.13" fill="#4472C4" rx="6"/>
  <rect x="124.27" y="242.20" width="199.56" height="193.33" fill="#70AD47" rx="6"/>
  <rect x="435.54" y="262.47" width="80.40" height="26.07" fill="#79B351" rx="6"/>
  <rect x="888.62" y="405.37" width="170.74" height="119.00" fill="#000000" rx="6"/>
  <rect x="98.67" y="438.40" width="716.28" height="86.00" fill="#7BBD4A" rx="6"/>
  <rect x="21.93" y="448.87" width="808.15" height="243.53" fill="#FFFFFF" rx="6"/>
  <rect x="391.21" y="530.20" width="367.45" height="154.40" fill="#5B9BD5" rx="6"/>
  <rect x="210.44" y="530.40" width="92.26" height="22.87" fill="#2D663E" rx="6"/>
  <rect x="142.20" y="531.67" width="225.04" height="152.87" fill="#70AD47" rx="6"/>
  <rect x="583.27" y="548.40" width="166.37" height="34.33" fill="#2E75B6" rx="6"/>
  <rect x="401.03" y="552.00" width="166.37" height="30.73" fill="#2E75B6" rx="6"/>
  <rect x="888.62" y="554.53" width="361.48" height="119.00" fill="#000000" rx="6"/>
  <rect x="167.59" y="557.40" width="177.92" height="29.00" fill="#73A154" rx="6"/>
  <rect x="401.03" y="584.87" width="166.37" height="30.53" fill="#2E75B6" rx="6"/>
  <rect x="167.59" y="588.53" width="177.92" height="29.00" fill="#5B9BD5" rx="6"/>
  <rect x="167.59" y="619.33" width="177.92" height="29.00" fill="#73A154" rx="6"/>
  <rect x="167.59" y="650.87" width="177.92" height="29.00" fill="#73A154" rx="6"/>
  <text x="33.93" y="43.3"  fill="#888888" font-size="11" font-family="Microsoft YaHei">${防}</text>
  <text x="33.93" y="57.3"  fill="#888888" font-size="11" font-family="Microsoft YaHei">${}</text>
  <text x="33.93" y="71.3"  fill="#888888" font-size="11" font-family="Microsoft YaHei">${运营保障业务}</text>
  <text x="20.58" y="85.8"  fill="#888888" font-size="11" font-family="Microsoft YaHei">${服务理念}</text>
  <text x="124.45" y="100.4"  fill="#888888" font-size="11" font-family="Microsoft YaHei">${围绕安全度量和安全验证建立基于实战对抗的}</text>
  <text x="124.45" y="114.4"  fill="#888888" font-size="11" font-family="Microsoft YaHei">${}</text>
  <text x="99.54" y="163.5"  fill="#888888" font-size="11" font-family="Microsoft YaHei">${通过一套能够着眼于企业安全建设过程管理的}</text>
  <text x="99.54" y="177.5"  fill="#888888" font-size="11" font-family="Microsoft YaHei">${}</text>
  <text x="99.54" y="191.5"  fill="#888888" font-size="11" font-family="Microsoft YaHei">${帮助企业在最大程度保留已有的安全设备和已}</text>
  <text x="99.54" y="205.5"  fill="#888888" font-size="11" font-family="Microsoft YaHei">${}</text>
  <text x="39.47" y="169.9"  fill="#888888" font-size="11" font-family="Microsoft YaHei">${攻防能力成熟度}</text>
  <text x="866.22" y="180.6"  fill="#888888" font-size="11" font-family="Microsoft YaHei">${HW保障服务}</text>
  <text x="137.67" y="220.7"  fill="#888888" font-size="11" font-family="Microsoft YaHei">${六个能力模块}</text>
  <text x="326.67" y="221.8"  fill="#888888" font-size="11" font-family="Microsoft YaHei">${三个评估维度}</text>
  <text x="896.09" y="234.2"  fill="#888888" font-size="11" font-family="Microsoft YaHei">${战前}</text>
  <text x="896.09" y="248.2"  fill="#888888" font-size="11" font-family="Microsoft YaHei">${}</text>
  <text x="896.09" y="262.2"  fill="#888888" font-size="11" font-family="Microsoft YaHei">${排查隐患}</text>
  <text x="896.09" y="276.2"  fill="#888888" font-size="11" font-family="Microsoft YaHei">${}</text>
  <text x="124.27" y="253.2"  fill="#888888" font-size="11" font-family="Microsoft YaHei">${攻击预防能力}</text>
  <text x="124.27" y="267.2"  fill="#888888" font-size="11" font-family="Microsoft YaHei">${事件检测能力}</text>
  <text x="124.27" y="281.2"  fill="#888888" font-size="11" font-family="Microsoft YaHei">${事件响应能力}</text>
  <text x="124.27" y="295.2"  fill="#888888" font-size="11" font-family="Microsoft YaHei">${防御加固能力}</text>
  <text x="888.62" y="258.2"  fill="#888888" font-size="11" font-family="Microsoft YaHei">${网络架构风险分析}</text>
  <text x="888.62" y="272.2"  fill="#888888" font-size="11" font-family="Microsoft YaHei">${全网资产收集盘点}</text>
  <text x="888.62" y="286.2"  fill="#888888" font-size="11" font-family="Microsoft YaHei">${漏洞扫描渗透测试}</text>
  <text x="888.62" y="300.2"  fill="#888888" font-size="11" font-family="Microsoft YaHei">${安全风险验证整改}</text>
  <text x="1038.63" y="258.2"  fill="#888888" font-size="11" font-family="Microsoft YaHei">${技能培训意识提升}</text>
  <text x="1038.63" y="272.2"  fill="#888888" font-size="11" font-family="Microsoft YaHei">${防护策略有效性评估}</text>
  <text x="1038.63" y="286.2"  fill="#888888" font-size="11" font-family="Microsoft YaHei">${红蓝对抗模拟演练}</text>
  <text x="1038.63" y="300.2"  fill="#888888" font-size="11" font-family="Microsoft YaHei">${社工专项评估}</text>
  <text x="189.05" y="272.4"  fill="#888888" font-size="11" font-family="Microsoft YaHei">${反制能力}</text>
  <text x="435.54" y="273.5"  fill="#888888" font-size="11" font-family="Microsoft YaHei">${人员}</text>
  <text x="435.54" y="287.5"  fill="#888888" font-size="11" font-family="Microsoft YaHei">${}</text>
  <text x="435.54" y="301.5"  fill="#888888" font-size="11" font-family="Microsoft YaHei">${组织}</text>
  <text x="515.95" y="275.7"  fill="#888888" font-size="11" font-family="Microsoft YaHei">${职责明确}</text>
  <text x="589.61" y="275.7"  fill="#888888" font-size="11" font-family="Microsoft YaHei">${岗位设置}</text>
  <text x="662.35" y="275.7"  fill="#888888" font-size="11" font-family="Microsoft YaHei">${技能掌握}</text>
  <text x="735.42" y="275.7"  fill="#888888" font-size="11" font-family="Microsoft YaHei">${安全意识}</text>
  <text x="435.54" y="334.6"  fill="#888888" font-size="11" font-family="Microsoft YaHei">${流程}</text>
  <text x="435.54" y="348.6"  fill="#888888" font-size="11" font-family="Microsoft YaHei">${}</text>
  <text x="435.54" y="362.6"  fill="#888888" font-size="11" font-family="Microsoft YaHei">${机制}</text>
  <text x="610.15" y="335.9"  fill="#888888" font-size="11" font-family="Microsoft YaHei">${执行策略明确}</text>
  <text x="515.95" y="336.0"  fill="#888888" font-size="11" font-family="Microsoft YaHei">${工作流程明确}</text>
  <text x="896.09" y="391.3"  fill="#888888" font-size="11" font-family="Microsoft YaHei">${战中}</text>
  <text x="896.09" y="405.3"  fill="#888888" font-size="11" font-family="Microsoft YaHei">${}</text>
  <text x="896.09" y="419.3"  fill="#888888" font-size="11" font-family="Microsoft YaHei">${持续监控}</text>
  <text x="896.09" y="433.3"  fill="#888888" font-size="11" font-family="Microsoft YaHei">${}</text>
  <text x="435.54" y="398.3"  fill="#888888" font-size="11" font-family="Microsoft YaHei">${技术}</text>
  <text x="435.54" y="412.3"  fill="#888888" font-size="11" font-family="Microsoft YaHei">${}</text>
  <text x="435.54" y="426.3"  fill="#888888" font-size="11" font-family="Microsoft YaHei">${工具}</text>
  <text x="515.95" y="400.7"  fill="#888888" font-size="11" font-family="Microsoft YaHei">${技术采用}</text>
  <text x="610.15" y="400.7"  fill="#888888" font-size="11" font-family="Microsoft YaHei">${工具采用}</text>
  <text x="888.62" y="416.4"  fill="#888888" font-size="11" font-family="Microsoft YaHei">${告警实时分析}</text>
  <text x="888.62" y="430.4"  fill="#888888" font-size="11" font-family="Microsoft YaHei">${事件应急处置}</text>
  <text x="888.62" y="444.4"  fill="#888888" font-size="11" font-family="Microsoft YaHei">${数据验证降噪}</text>
  <text x="888.62" y="458.4"  fill="#888888" font-size="11" font-family="Microsoft YaHei">${风险收敛闭环}</text>
  <text x="1038.63" y="418.0"  fill="#888888" font-size="11" font-family="Microsoft YaHei">${蜜罐诱捕甜度运营}</text>
  <text x="1038.63" y="432.0"  fill="#888888" font-size="11" font-family="Microsoft YaHei">${溯源反制技术得分}</text>
  <text x="1038.63" y="446.0"  fill="#888888" font-size="11" font-family="Microsoft YaHei">${设备策略持续优化}</text>
  <text x="1038.63" y="460.0"  fill="#888888" font-size="11" font-family="Microsoft YaHei">${每日战况总结沉淀}</text>
  <text x="98.67" y="449.4"  fill="#888888" font-size="11" font-family="Microsoft YaHei">${基于长亭自研御衡-安全验证平台结合实战积}</text>
  <text x="98.67" y="463.4"  fill="#888888" font-size="11" font-family="Microsoft YaHei">${}</text>
  <text x="98.67" y="477.4"  fill="#888888" font-size="11" font-family="Microsoft YaHei">${以服务方式对企业网络安全防护体系健康度进}</text>
  <text x="98.67" y="491.4"  fill="#888888" font-size="11" font-family="Microsoft YaHei">${}</text>
  <text x="39.47" y="475.9"  fill="#888888" font-size="11" font-family="Microsoft YaHei">${安全技术验证}</text>
  <text x="533.80" y="539.8"  fill="#888888" font-size="11" font-family="Microsoft YaHei">${场景验证}</text>
  <text x="210.44" y="541.4"  fill="#888888" font-size="11" font-family="Microsoft YaHei">${安全技术验证}</text>
  <text x="896.09" y="543.9"  fill="#888888" font-size="11" font-family="Microsoft YaHei">${战后}</text>
  <text x="896.09" y="557.9"  fill="#888888" font-size="11" font-family="Microsoft YaHei">${}</text>
  <text x="896.09" y="571.9"  fill="#888888" font-size="11" font-family="Microsoft YaHei">${总结分析}</text>
  <text x="896.09" y="585.9"  fill="#888888" font-size="11" font-family="Microsoft YaHei">${}</text>
  <text x="583.27" y="559.4"  fill="#888888" font-size="11" font-family="Microsoft YaHei">${钓鱼邮件演练}</text>
  <text x="583.27" y="573.4"  fill="#888888" font-size="11" font-family="Microsoft YaHei">${与防护验证场景}</text>
  <text x="423.75" y="561.5"  fill="#888888" font-size="11" font-family="Microsoft YaHei">${基础防护验证场景}</text>
  <text x="423.75" y="575.5"  fill="#888888" font-size="11" font-family="Microsoft YaHei">${主机终端流量应用等}</text>
  <text x="888.62" y="565.5"  fill="#888888" font-size="11" font-family="Microsoft YaHei">${对整体网络环境和信息系统等进行加固}</text>
  <text x="888.62" y="579.5"  fill="#888888" font-size="11" font-family="Microsoft YaHei">${总结安全事件及其应对措施总结安全建设优缺}</text>
  <text x="888.62" y="593.5"  fill="#888888" font-size="11" font-family="Microsoft YaHei">${根据演练前后攻防能力成熟度评估结果对企业}</text>
  <text x="888.62" y="607.5"  fill="#888888" font-size="11" font-family="Microsoft YaHei">${为未来企业安全规划提出战略性建议}</text>
  <text x="204.15" y="571.1"  fill="#888888" font-size="11" font-family="Microsoft YaHei">${攻击路径分析服务}</text>
  <text x="451.48" y="590.6"  fill="#888888" font-size="11" font-family="Microsoft YaHei">${APT}</text>
  <text x="451.48" y="604.6"  fill="#888888" font-size="11" font-family="Microsoft YaHei">${防护与溯源}</text>
  <text x="451.48" y="618.6"  fill="#888888" font-size="11" font-family="Microsoft YaHei">${验证场景}</text>
  <text x="626.81" y="591.5"  fill="#888888" font-size="11" font-family="Microsoft YaHei">${勒索病毒演练}</text>
  <text x="626.81" y="605.5"  fill="#888888" font-size="11" font-family="Microsoft YaHei">${与防护验证场景}</text>
  <text x="209.21" y="602.6"  fill="#888888" font-size="11" font-family="Microsoft YaHei">${场景验证服务}</text>
  <text x="620.14" y="624.3"  fill="#888888" font-size="11" font-family="Microsoft YaHei">${容器安全验证}</text>
  <text x="620.14" y="638.3"  fill="#888888" font-size="11" font-family="Microsoft YaHei">${场景}</text>
  <text x="449.63" y="625.7"  fill="#888888" font-size="11" font-family="Microsoft YaHei">${互联网边界防护}</text>
  <text x="449.63" y="639.7"  fill="#888888" font-size="11" font-family="Microsoft YaHei">${覆盖度验证场景}</text>
  <text x="209.21" y="633.5"  fill="#888888" font-size="11" font-family="Microsoft YaHei">${剧本定制服务}</text>
  <text x="448.76" y="659.3"  fill="#888888" font-size="11" font-family="Microsoft YaHei">${互联网边界防护}</text>
  <text x="448.76" y="673.3"  fill="#888888" font-size="11" font-family="Microsoft YaHei">${有效性验证场景}</text>
  <text x="209.21" y="664.3"  fill="#888888" font-size="11" font-family="Microsoft YaHei">${协助加固服务}</text>
  <text x="607.23" y="665.4"  fill="#888888" font-size="11" font-family="Microsoft YaHei">${更多验证场景}</text>
  <text x="607.23" y="679.4"  fill="#888888" font-size="11" font-family="Microsoft YaHei">${}</text>
</svg>