<svg xmlns="http://www.w3.org/2000/svg" viewBox="0 0 1280 720">
  <!-- ===== GRID VARIANT: 2x3 卡片网格 ===== -->
  <!-- 背景: #1A1A2E | 强调色: #7BBD4A -->

  <rect width="1280" height="720" fill="#1A1A2E"/>
  <rect x="34" y="32" width="1094" height="73" fill="#222244"/>
  <text x="50" y="73" fill="#FFFFFF" font-size="22" font-weight="bold" font-family="Microsoft YaHei">${title}</text>
  <rect x="1128" y="29" width="113" height="31" fill="#333355" rx="4"/>
  <rect x="34" y="140" width="400" height="165" fill="#1A2530" rx="8"/>
  <rect x="34" y="140" width="400" height="4" fill="#7BBD4A" rx="2"/>
  <text x="49" y="175" fill="#7BBD4A" font-size="13" font-weight="bold" font-family="Microsoft YaHei">${item_title_1}</text>
  <text x="49" y="200" fill="#BBBBBB" font-size="11" font-family="Microsoft YaHei">${description content...}</text>
  <rect x="449" y="140" width="400" height="165" fill="#1A2530" rx="8"/>
  <rect x="449" y="140" width="400" height="4" fill="#7BBD4A" rx="2"/>
  <text x="464" y="175" fill="#7BBD4A" font-size="13" font-weight="bold" font-family="Microsoft YaHei">${item_title_2}</text>
  <text x="464" y="200" fill="#BBBBBB" font-size="11" font-family="Microsoft YaHei">${description content...}</text>
  <rect x="864" y="140" width="400" height="165" fill="#1A2530" rx="8"/>
  <rect x="864" y="140" width="400" height="4" fill="#7BBD4A" rx="2"/>
  <text x="879" y="175" fill="#7BBD4A" font-size="13" font-weight="bold" font-family="Microsoft YaHei">${item_title_3}</text>
  <text x="879" y="200" fill="#BBBBBB" font-size="11" font-family="Microsoft YaHei">${description content...}</text>
  <rect x="34" y="320" width="400" height="165" fill="#1A2530" rx="8"/>
  <rect x="34" y="320" width="400" height="4" fill="#7BBD4A" rx="2"/>
  <text x="49" y="355" fill="#7BBD4A" font-size="13" font-weight="bold" font-family="Microsoft YaHei">${item_title_4}</text>
  <text x="49" y="380" fill="#BBBBBB" font-size="11" font-family="Microsoft YaHei">${description content...}</text>
  <rect x="449" y="320" width="400" height="165" fill="#1A2530" rx="8"/>
  <rect x="449" y="320" width="400" height="4" fill="#7BBD4A" rx="2"/>
  <text x="464" y="355" fill="#7BBD4A" font-size="13" font-weight="bold" font-family="Microsoft YaHei">${item_title_5}</text>
  <text x="464" y="380" fill="#BBBBBB" font-size="11" font-family="Microsoft YaHei">${description content...}</text>
  <rect x="864" y="320" width="400" height="165" fill="#1A2530" rx="8"/>
  <rect x="864" y="320" width="400" height="4" fill="#7BBD4A" rx="2"/>
  <text x="879" y="355" fill="#7BBD4A" font-size="13" font-weight="bold" font-family="Microsoft YaHei">${item_title_6}</text>
  <text x="879" y="380" fill="#BBBBBB" font-size="11" font-family="Microsoft YaHei">${description content...}</text>
</svg>