<svg xmlns="http://www.w3.org/2000/svg" viewBox="0 0 1280 720">
<!-- L-R (培 left text + right area) | bg=#FFFFFF | 61 shapes -->
  <rect width="1280" height="720" fill="#FFFFFF"/>
  <rect x="33.93" y="32.33" width="1094.23" height="73.07" fill="#000000" rx="6"/>
  <rect x="33.93" y="90.20" width="263.47" height="53.20" fill="#A7D18E" rx="6"/>
  <rect x="444.14" y="103.00" width="793.75" height="558.33" fill="#FFFFFF" rx="6"/>
  <rect x="609.43" y="138.87" width="422.45" height="202.84" fill="#4472C4" rx="6"/>
  <rect x="58.80" y="206.80" width="326.14" height="96.80" fill="#000000" rx="6"/>
  <rect x="809.07" y="294.85" width="121.85" height="25.72" fill="#52B28C" rx="6"/>
  <rect x="770.80" y="302.82" width="47.82" height="53.01" fill="#52B28C" rx="3"/>
  <rect x="59.65" y="320.57" width="326.14" height="93.48" fill="#C00000" rx="6"/>
  <rect x="476.54" y="328.54" width="725.47" height="139.27" fill="#000000" rx="6"/>
  <rect x="611.85" y="347.60" width="442.25" height="92.15" fill="#FFFFFF" rx="6"/>
  <rect x="508.86" y="375.40" width="121.85" height="25.72" fill="#5B9BD5" rx="6"/>
  <rect x="1049.87" y="375.40" width="121.85" height="25.72" fill="#8396AF" rx="6"/>
  <rect x="494.31" y="400.25" width="47.82" height="53.01" fill="#5B9BD5" rx="3"/>
  <rect x="1097.92" y="413.85" width="125.53" height="30.31" fill="#4472C4" rx="6"/>
  <rect x="454.00" y="414.28" width="125.53" height="30.31" fill="#4472C4" rx="6"/>
  <rect x="58.80" y="428.07" width="326.14" height="96.80" fill="#C00000" rx="6"/>
  <rect x="58.80" y="429.00" width="326.14" height="96.73" fill="#FFFFFF" rx="6"/>
  <rect x="862.20" y="439.75" width="47.82" height="53.01" fill="#7BBD4A" rx="3"/>
  <rect x="636.43" y="467.12" width="393.18" height="146.28" fill="#70AD47" rx="6"/>
  <rect x="892.49" y="476.12" width="150.18" height="25.72" fill="#7BBD4A" rx="6"/>
  <rect x="58.80" y="538.47" width="326.14" height="93.48" fill="#C00000" rx="6"/>
  <text x="33.93" y="43.3"  fill="#888888" font-size="11" font-family="Microsoft YaHei">${培}</text>
  <text x="33.93" y="57.3"  fill="#888888" font-size="11" font-family="Microsoft YaHei">${}</text>
  <text x="33.93" y="71.3"  fill="#888888" font-size="11" font-family="Microsoft YaHei">${人才培养体系}</text>
  <text x="70.67" y="94.2"  fill="#888888" font-size="11" font-family="Microsoft YaHei">${重点需求场景}</text>
  <text x="609.43" y="149.9"  fill="#888888" font-size="11" font-family="Microsoft YaHei">${选}</text>
  <text x="609.43" y="163.9"  fill="#888888" font-size="11" font-family="Microsoft YaHei">${育}</text>
  <text x="609.43" y="177.9"  fill="#888888" font-size="11" font-family="Microsoft YaHei">${用}</text>
  <text x="609.43" y="191.9"  fill="#888888" font-size="11" font-family="Microsoft YaHei">${留}</text>
  <text x="104.60" y="160.1"  fill="#888888" font-size="11" font-family="Microsoft YaHei">${网络安全蓝军体系建设}</text>
  <text x="58.80" y="217.8"  fill="#888888" font-size="11" font-family="Microsoft YaHei">${企业内部对口专业人才稀缺技术能力评估缺乏}</text>
  <text x="58.80" y="231.8"  fill="#888888" font-size="11" font-family="Microsoft YaHei">${}</text>
  <text x="58.80" y="245.8"  fill="#888888" font-size="11" font-family="Microsoft YaHei">${网络安全人才选拔存在卡点}</text>
  <text x="809.07" y="305.9"  fill="#888888" font-size="11" font-family="Microsoft YaHei">${培养计划实施}</text>
  <text x="59.65" y="331.6"  fill="#888888" font-size="11" font-family="Microsoft YaHei">${未建立网络安全人才画像和评价体系安全培训}</text>
  <text x="59.65" y="345.6"  fill="#888888" font-size="11" font-family="Microsoft YaHei">${难以做到因材施教}</text>
  <text x="717.66" y="372.3"  fill="#888888" font-size="11" font-family="Microsoft YaHei">${活动运营}</text>
  <text x="717.66" y="386.3"  fill="#888888" font-size="11" font-family="Microsoft YaHei">${数据监控}</text>
  <text x="508.86" y="386.4"  fill="#888888" font-size="11" font-family="Microsoft YaHei">${实施计划制定}</text>
  <text x="1049.87" y="386.4"  fill="#888888" font-size="11" font-family="Microsoft YaHei">${培养效果评估}</text>
  <text x="828.01" y="405.3"  fill="#888888" font-size="11" font-family="Microsoft YaHei">${建设情况总结}</text>
  <text x="918.08" y="411.2"  fill="#888888" font-size="11" font-family="Microsoft YaHei">${经验归档}</text>
  <text x="564.04" y="426.8"  fill="#888888" font-size="11" font-family="Microsoft YaHei">${计划制定}</text>
  <text x="58.80" y="439.1"  fill="#888888" font-size="11" font-family="Microsoft YaHei">${网络安全相关人员身兼安全与生产}</text>
  <text x="58.80" y="453.1"  fill="#888888" font-size="11" font-family="Microsoft YaHei">${}</text>
  <text x="58.80" y="467.1"  fill="#888888" font-size="11" font-family="Microsoft YaHei">${且安全}</text>
  <text x="58.80" y="481.1"  fill="#888888" font-size="11" font-family="Microsoft YaHei">${实战能力与绩效评价关联性弱}</text>
  <text x="450.17" y="455.0"  fill="#888888" font-size="11" font-family="Microsoft YaHei">${模板和评估标准}</text>
  <text x="483.90" y="465.9"  fill="#888888" font-size="11" font-family="Microsoft YaHei">${知识技能梳理}</text>
  <text x="1177.28" y="465.9"  fill="#888888" font-size="11" font-family="Microsoft YaHei">${人才能力评估}</text>
  <text x="1202.48" y="469.2"  fill="#888888" font-size="11" font-family="Microsoft YaHei">${人才认证}</text>
  <text x="892.49" y="487.1"  fill="#888888" font-size="11" font-family="Microsoft YaHei">${人才培养建设复盘}</text>
  <text x="534.30" y="503.8"  fill="#888888" font-size="11" font-family="Microsoft YaHei">${构建标准}</text>
  <text x="1042.67" y="503.8"  fill="#888888" font-size="11" font-family="Microsoft YaHei">${人才评估}</text>
  <text x="801.40" y="510.3"  fill="#888888" font-size="11" font-family="Microsoft YaHei">${经验总结}</text>
  <text x="58.80" y="549.5"  fill="#888888" font-size="11" font-family="Microsoft YaHei">${实操用的是老掉牙的开源工具课程内容大多人}</text>
  <text x="58.80" y="563.5"  fill="#888888" font-size="11" font-family="Microsoft YaHei">${}</text>
  <text x="58.80" y="577.5"  fill="#888888" font-size="11" font-family="Microsoft YaHei">${攻防理论和实践结合存在卡点}</text>
  <text x="58.80" y="591.5"  fill="#888888" font-size="11" font-family="Microsoft YaHei">${理论和实战脱节严重}</text>
  <text x="696.92" y="580.1"  fill="#888888" font-size="11" font-family="Microsoft YaHei">${墨攻靶场平台}</text>
  <text x="696.92" y="594.1"  fill="#888888" font-size="11" font-family="Microsoft YaHei">${}</text>
  <text x="696.92" y="608.1"  fill="#888888" font-size="11" font-family="Microsoft YaHei">${洞鉴}</text>
  <text x="696.92" y="622.1"  fill="#888888" font-size="11" font-family="Microsoft YaHei">${SaaS }</text>
</svg>