<svg xmlns="http://www.w3.org/2000/svg" viewBox="0 0 1280 720">
  <!-- ===== STANDARD BODY PAGE ===== -->
  <!-- 背景: #1A1A2E | 强调色: #7BBD4A -->

  <rect width="1280" height="720" fill="#1A1A2E"/>
  <rect x="34" y="32" width="1094" height="73" fill="#222244"/>
  <text x="50" y="73" fill="#FFFFFF" font-size="22" font-weight="bold" font-family="Microsoft YaHei">${title}</text>
  <rect x="1128" y="29" width="113" height="31" fill="#333355" rx="4"/>
  <rect x="34" y="130" width="1195" height="100" fill="#1A2530" rx="6"/>
  <rect x="34" y="130" width="5" height="100" fill="#7BBD4A" rx="2"/>
  <text x="55" y="158" fill="#FFFFFF" font-size="13" font-weight="bold" font-family="Microsoft YaHei">${bullet_title_1}</text>
  <text x="55" y="182" fill="#AAAAAA" font-size="11" font-family="Microsoft YaHei">${bullet content description line 1...}</text>
  <rect x="34" y="245" width="1195" height="100" fill="#1A2530" rx="6"/>
  <rect x="34" y="245" width="5" height="100" fill="#7BBD4A" rx="2"/>
  <text x="55" y="273" fill="#FFFFFF" font-size="13" font-weight="bold" font-family="Microsoft YaHei">${bullet_title_2}</text>
  <text x="55" y="297" fill="#AAAAAA" font-size="11" font-family="Microsoft YaHei">${bullet content description line 2...}</text>
  <rect x="34" y="360" width="1195" height="100" fill="#1A2530" rx="6"/>
  <rect x="34" y="360" width="5" height="100" fill="#7BBD4A" rx="2"/>
  <text x="55" y="388" fill="#FFFFFF" font-size="13" font-weight="bold" font-family="Microsoft YaHei">${bullet_title_3}</text>
  <text x="55" y="412" fill="#AAAAAA" font-size="11" font-family="Microsoft YaHei">${bullet content description line 3...}</text>
  <rect x="34" y="475" width="1195" height="100" fill="#1A2530" rx="6"/>
  <rect x="34" y="475" width="5" height="100" fill="#7BBD4A" rx="2"/>
  <text x="55" y="503" fill="#FFFFFF" font-size="13" font-weight="bold" font-family="Microsoft YaHei">${bullet_title_4}</text>
  <text x="55" y="527" fill="#AAAAAA" font-size="11" font-family="Microsoft YaHei">${bullet content description line 4...}</text>
  <rect x="34" y="590" width="1195" height="100" fill="#1A2530" rx="6"/>
  <rect x="34" y="590" width="5" height="100" fill="#7BBD4A" rx="2"/>
  <text x="55" y="618" fill="#FFFFFF" font-size="13" font-weight="bold" font-family="Microsoft YaHei">${bullet_title_5}</text>
  <text x="55" y="642" fill="#AAAAAA" font-size="11" font-family="Microsoft YaHei">${bullet content description line 5...}</text>
</svg>