<svg xmlns="http://www.w3.org/2000/svg" viewBox="0 0 1280 720">
  <rect x="0.0" y="0.0" width="134.4" height="755.9" rx="0" fill="#FAFAFA" stroke="none" stroke-width="0.0"/>
  <rect x="0.0" y="0.0" width="134.4" height="63.0" rx="0" fill="#7BBD4A" stroke="none" stroke-width="0.0"/>
  <text x="42.0" y="24.6" fill="#FFFFFF" font-size="88" font-weight="yes" font-family="Microsoft YaHei" text-anchor="start">典型攻击路径</text>
  <rect x="21.0" y="94.5" width="357.0" height="545.9" rx="260000" fill="#43827F" stroke="none" stroke-width="0.0"/>
  <text x="42.0" y="144.9" fill="#FFFFFF" font-size="96" font-weight="yes" font-family="Microsoft YaHei" text-anchor="middle">外网突破</text>
  <text x="42.0" y="352.8" fill="#FFFFFF" font-size="64" font-weight="no" font-family="Microsoft YaHei" text-anchor="start">收集情报→发现漏洞→利用入口</text>
  <path d="M 3800000 2700000 L 4700000 2700000 L 4700000 2200000 L 5300000 2700000 L 4700000 3200000 L 4700000 2700000 Z" fill="#4AB680" stroke="#000" stroke-width="0.0"/>
  <rect x="440.9" y="94.5" width="357.0" height="545.9" rx="260000" fill="#4AB680" stroke="none" stroke-width="0.0"/>
  <text x="461.9" y="144.9" fill="#FFFFFF" font-size="96" font-weight="yes" font-family="Microsoft YaHei" text-anchor="middle">内网渗透</text>
  <text x="461.9" y="352.8" fill="#FFFFFF" font-size="64" font-weight="no" font-family="Microsoft YaHei" text-anchor="start">权限提升→凭据窃取→维持控制</text>
  <path d="M 7800000 2700000 L 8700000 2700000 L 8700000 2200000 L 9300000 2700000 L 8700000 3200000 L 8700000 2700000 Z" fill="#4AB680" stroke="#000" stroke-width="0.0"/>
  <rect x="860.9" y="94.5" width="357.0" height="545.9" rx="260000" fill="#7BBD4A" stroke="none" stroke-width="0.0"/>
  <text x="881.9" y="144.9" fill="#FFFFFF" font-size="96" font-weight="yes" font-family="Microsoft YaHei" text-anchor="middle">横向拓展</text>
  <text x="881.9" y="352.8" fill="#FFFFFF" font-size="64" font-weight="no" font-family="Microsoft YaHei" text-anchor="start">内网探测→横向移动→达成目标</text>
</svg>
