<svg xmlns="http://www.w3.org/2000/svg" viewBox="0 0 1280 720">
  <rect x="0.4" y="0.4" width="41.2" height="22.3" rx="16000" fill="#7BBD4A" stroke="#7BBD4A" stroke-width="1.3"/>
  <text x="2.1" y="9.0" fill="#FFFFFF" font-size="64" font-weight="yes" font-family="Microsoft YaHei" text-anchor="middle">矩阵单元</text>
  <rect x="42.4" y="0.4" width="41.2" height="22.3" rx="16000" fill="#7BBD4A" stroke="#7BBD4A" stroke-width="1.3"/>
  <text x="44.1" y="9.0" fill="#FFFFFF" font-size="64" font-weight="yes" font-family="Microsoft YaHei" text-anchor="middle">矩阵单元</text>
  <rect x="84.4" y="0.4" width="41.2" height="22.3" rx="16000" fill="#7BBD4A" stroke="#7BBD4A" stroke-width="1.3"/>
  <text x="86.1" y="9.0" fill="#FFFFFF" font-size="64" font-weight="yes" font-family="Microsoft YaHei" text-anchor="middle">矩阵单元</text>
  <rect x="0.4" y="23.5" width="41.2" height="22.3" rx="16000" fill="#FFFFFF" stroke="#7BBD4A" stroke-width="1.3"/>
  <text x="2.1" y="32.1" fill="#1A1A1A" font-size="64" font-weight="yes" font-family="Microsoft YaHei" text-anchor="middle">矩阵单元</text>
  <rect x="42.4" y="23.5" width="41.2" height="22.3" rx="16000" fill="#FFFFFF" stroke="#7BBD4A" stroke-width="1.3"/>
  <text x="44.1" y="32.1" fill="#1A1A1A" font-size="64" font-weight="yes" font-family="Microsoft YaHei" text-anchor="middle">矩阵单元</text>
  <rect x="84.4" y="23.5" width="41.2" height="22.3" rx="16000" fill="#FFFFFF" stroke="#7BBD4A" stroke-width="1.3"/>
  <text x="86.1" y="32.1" fill="#1A1A1A" font-size="64" font-weight="yes" font-family="Microsoft YaHei" text-anchor="middle">矩阵单元</text>
  <rect x="0.4" y="46.6" width="41.2" height="22.3" rx="16000" fill="#FFFFFF" stroke="#7BBD4A" stroke-width="1.3"/>
  <text x="2.1" y="55.2" fill="#1A1A1A" font-size="64" font-weight="yes" font-family="Microsoft YaHei" text-anchor="middle">矩阵单元</text>
  <rect x="42.4" y="46.6" width="41.2" height="22.3" rx="16000" fill="#FFFFFF" stroke="#7BBD4A" stroke-width="1.3"/>
  <text x="44.1" y="55.2" fill="#1A1A1A" font-size="64" font-weight="yes" font-family="Microsoft YaHei" text-anchor="middle">矩阵单元</text>
  <rect x="84.4" y="46.6" width="41.2" height="22.3" rx="16000" fill="#FFFFFF" stroke="#7BBD4A" stroke-width="1.3"/>
  <text x="86.1" y="55.2" fill="#1A1A1A" font-size="64" font-weight="yes" font-family="Microsoft YaHei" text-anchor="middle">矩阵单元</text>
</svg>
