<?xml version="1.0" encoding="UTF-8" standalone="yes"?><svg fill="none" xmlns="http://www.w3.org/2000/svg" xmlns:xlink="http://www.w3.org/1999/xlink" version="1.2" baseProfile="tiny" x="0" y="0" width="256" height="256" viewBox="0 0 256 256"><defs/><g id="单面性_10740924807.报告"><g id="Group"><g id="Group_2"><g id="Group_3"><path id="Vector" fill="#333333" fill-opacity="1" clip-rule="evenodd" d="M 230.759 79.2498 L 166.933 79.2498 C 158.799 79.2498 152.204 72.6548 152.204 64.5206 L 152.204 0.694122 L 39.28 0.694122 C 31.1453 0.694122 24.5508 7.28911 24.5508 15.4233 L 24.5508 241.271 C 24.5508 249.406 31.1453 256 39.28 256 L 216.03 256 C 224.164 256 230.759 249.406 230.759 241.271 L 230.759 79.2498 M 68.7383 167.625 C 66.0268 167.625 63.8286 165.427 63.8286 162.715 C 63.8286 160.004 66.0268 157.805 68.7383 157.805 L 186.572 157.805 C 189.283 157.805 191.482 160.004 191.482 162.715 C 191.482 165.427 189.283 167.625 186.572 167.625 L 68.7383 167.625 M 68.7383 118.528 C 66.0268 118.528 63.8286 116.329 63.8286 113.618 C 63.8286 110.906 66.0268 108.708 68.7383 108.708 L 186.572 108.708 C 189.283 108.708 191.482 110.906 191.482 113.618 C 191.482 116.329 189.283 118.528 186.572 118.528 L 68.7383 118.528 M 68.7383 69.4303 C 66.0268 69.4303 63.8286 67.232 63.8286 64.5206 C 63.8286 61.8092 66.0268 59.6109 68.7383 59.6109 L 127.655 59.6109 C 130.367 59.6109 132.565 61.8092 132.565 64.5206 C 132.565 67.232 130.367 69.4303 127.655 69.4303 L 68.7383 69.4303"/></g><g id="Group_4"><path id="Vector_2" fill="#333333" fill-opacity="1" clip-rule="evenodd" d="M 171.843 69.4302 L 226.543 69.4302 C 229.256 69.4302 231.453 67.2318 231.453 64.5204 C 231.453 63.2181 230.936 61.9698 230.016 61.0493 L 170.404 1.43781 C 168.487 -0.479439 165.379 -0.479439 163.462 1.43781 C 162.54 2.35838 162.023 3.6079 162.023 4.91021 L 162.023 59.6107 C 162.023 65.0335 166.42 69.4302 171.843 69.4302 Z"/></g></g></g></g></svg>
