<?xml version="1.0" encoding="UTF-8" standalone="yes"?><svg id="图层_1" xmlns="http://www.w3.org/2000/svg" xmlns:xlink="http://www.w3.org/1999/xlink" version="1.2" baseProfile="tiny" x="0" y="0" width="256" height="256" viewBox="0 0 256 256"><defs/><defs/><defs/><defs/><defs/><defs/><defs/><g transform="matrix(0.383693,0,0,0.383693,-62.6052,-70.3693)"><g><g><path fill="#ffffff" fill-opacity="1" d="M 687.3 850.6 L 236.8 850.6 C 205.8 850.6 180.6 827.2 180.6 798.5 L 180.6 235.5 C 180.6 206.8 205.8 183.4 236.8 183.4 L 687.3 183.4 C 718.3 183.4 743.5 206.8 743.5 235.5 L 743.5 320 C 743.5 331.5 734.2 340.8 722.7 340.8 C 711.2 340.8 701.9 331.5 701.9 320 L 701.9 235.6 C 701.9 230 695.1 225.2 687.4 225.2 L 236.8 225.2 C 229.1 225.2 222.3 230.1 222.3 235.6 L 222.3 798.5 C 222.3 804.1 229.1 808.9 236.8 808.9 L 687.3 808.9 C 695 808.9 701.8 804 701.8 798.5 L 701.8 765.3 C 701.8 753.8 711.1 744.5 722.6 744.5 C 734.1 744.5 743.4 753.8 743.4 765.3 L 743.4 798.5 C 743.5 827.2 718.3 850.6 687.3 850.6 Z"/></g><g><g><path fill="#ffffff" fill-opacity="1" d="M 606.4 392 L 293.6 392 C 282.1 392 272.8 382.5 272.8 371 C 272.8 359.5 282.1 350 293.6 350 L 606.3 350 C 617.8 350 627.1 359.5 627.1 371 C 627.1 382.5 617.9 392 606.4 392 Z"/></g><g><path fill="#ffffff" fill-opacity="1" d="M 543.8 538 L 293.6 538 C 282.1 538 272.8 528.5 272.8 517 C 272.8 505.5 282.1 496 293.6 496 L 543.8 496 C 555.3 496 564.6 505.5 564.6 517 C 564.6 528.5 555.3 538 543.8 538 Z"/></g><g><path fill="#ffffff" fill-opacity="1" d="M 543.8 684 L 293.6 684 C 282.1 684 272.8 674.5 272.8 663 C 272.8 651.5 282.1 642 293.6 642 L 543.8 642 C 555.3 642 564.6 651.5 564.6 663 C 564.6 674.5 555.3 684 543.8 684 Z"/></g></g><g><path fill="#ffffff" fill-opacity="1" d="M 613.8 736.7 C 610.3 736.7 606.7 735.8 603.4 733.9 C 593.4 728.1 590 715.4 595.8 705.4 L 774 396.8 C 779.8 386.8 792.5 383.4 802.5 389.2 C 812.5 395 815.9 407.7 810.1 417.7 L 631.9 726.3 C 628 733 621 736.7 613.8 736.7 Z"/></g></g></g></svg>
