<?xml version="1.0" encoding="UTF-8" standalone="yes"?><svg xmlns="http://www.w3.org/2000/svg" xmlns:xlink="http://www.w3.org/1999/xlink" version="1.2" baseProfile="tiny" x="0" y="0" width="256" height="256" viewBox="0 0 256 256"><defs/><defs/><defs/><defs/><defs/><g transform="matrix(9.15181,0,0,9.15181,-18.4201,-18.4513)"><g id="Page-1" fill="none" fill-rule="evenodd"><g id="分组-172" fill="#262626" fill-rule="nonzero" transform="matrix(1,0,0,1,-62,-126)"><g id="tounaofengbao" transform="matrix(1,0,0,1,66,128)"><path id="形状" fill="#ffffff" fill-opacity="1" stroke-width="9.15262" d="M 13.2847 0.0161342 C 7.95753 0.0161342 3.54193 3.91205 2.72988 9.00946 L 0.17098 13.5239 C -0.254317 14.2739 0.287553 15.2039 1.1498 15.2039 L 2.8763 15.2039 L 2.8763 20.8148 C 2.8763 22.3994 4.35797 23.5672 5.89908 23.1973 L 7.83518 22.9298 L 7.83518 26.1814 C 7.83518 27.1796 8.64447 27.9887 9.64269 27.9887 L 15.5175 27.9887 C 16.5159 27.9887 17.3253 27.1796 17.3253 26.1814 L 17.3253 20.5988 C 21.2258 19.0054 23.9751 15.1761 23.9751 10.7037 C 23.9748 4.80074 19.1885 0.0161342 13.2847 0.0161342 M 17.1666 9.64602 L 11.3387 15.7718 C 11.035 16.0911 10.5005 15.8309 10.5641 15.3948 L 11.1779 11.2006 L 8.51336 11.2006 C 8.11617 11.2006 7.91231 10.7254 8.18578 10.4376 L 14.0141 4.3119 C 14.3178 3.99252 14.8523 4.25276 14.7887 4.68884 L 14.1749 8.88303 L 16.8394 8.88303 C 17.2362 8.88303 17.4405 9.35822 17.1666 9.64602"/></g></g><g id="IIIII-Copy-29" transform="matrix(1,0,0,1,-64,-128)"/></g></g></svg>
