<svg width="800px" height="800px" viewBox="0 0 16 16" fill="none" xmlns="http://www.w3.org/2000/svg">
<path d="M5 3.5C5 2 6.5 1 8 1C9.5 1 11 2 11 3.5V4.5" stroke="#000000" stroke-width="1.3" stroke-linecap="round" fill="none"/>
<path d="M5 6C5 4.5 6.3 3.5 8 3.5C9.7 3.5 11 4.5 11 6V8" stroke="#000000" stroke-width="1.3" stroke-linecap="round" fill="none"/>
<path d="M5.5 8.5C5.5 7.2 6.5 6.5 8 6.5C9.5 6.5 10.5 7.2 10.5 8.5V12C10.5 13.5 9.5 14.5 8 14.5C6.5 14.5 5.5 13.5 5.5 12V8.5Z" fill="none" stroke="#000000" stroke-width="1.3"/>
<line x1="8" y1="9" x2="8" y2="11.5" stroke="#000000" stroke-width="1.5" stroke-linecap="round"/>
<circle cx="8" cy="12.2" r="0.6" fill="#000000"/>
</svg>