<svg width="800px" height="800px" viewBox="0 0 16 16" fill="none" xmlns="http://www.w3.org/2000/svg">
<path d="M8 1C5.5 1 3 2.5 2 4.5C1.5 5.5 1.3 6.5 1.3 7.5C1.3 8 1.5 8.5 2 8.5C2.5 8.5 3 8 3 7.5C3 5.5 5 3.5 8 3.5C11 3.5 13 5.5 13 7.5C13 8 13.5 8.5 14 8.5C14.5 8.5 14.7 8 14.7 7.5C14.7 6.5 14.5 5.5 14 4.5C13 2.5 10.5 1 8 1Z" fill="#000000"/>
<path d="M3 9V14C3 14.6 3.4 15 4 15H12C12.6 15 13 14.6 13 14V9H11V13H5V9H3Z" fill="#000000"/>
<path d="M8 6C6.9 6 6 6.9 6 8C6 9.1 6.9 10 8 10C9.1 10 10 9.1 10 8C10 6.9 9.1 6 8 6Z" fill="#000000"/>
<rect x="7" y="10" width="2" height="2" fill="#000000"/>
</svg>