<svg width="800px" height="800px" viewBox="0 0 16 16" fill="none" xmlns="http://www.w3.org/2000/svg">
<path d="M8 1C4.7 1 2 3.7 2 7V11.5C2 12.3 2.7 13 3.5 13H4.5L5 15H11L11.5 13H12.5C13.3 13 14 12.3 14 11.5V7C14 3.7 11.3 1 8 1Z" fill="#000000"/>
<circle cx="5.5" cy="6.5" r="1.5" fill="#FFFFFF"/>
<circle cx="10.5" cy="6.5" r="1.5" fill="#FFFFFF"/>
<circle cx="5.5" cy="6.5" r="0.7" fill="#000000"/>
<circle cx="10.5" cy="6.5" r="0.7" fill="#000000"/>
<path d="M5.5 10.5H10.5" stroke="#FFFFFF" stroke-width="1.5" stroke-linecap="round"/>
<rect x="6" y="8.5" width="1.5" height="2" fill="#FFFFFF"/>
<rect x="8.5" y="8.5" width="1.5" height="2" fill="#FFFFFF"/>
</svg>